<svg width="58" height="40" viewBox="0 0 58 40" fill="none" xmlns="http://www.w3.org/2000/svg">
<rect x="0.5" y="0.5" width="57" height="39" rx="5.5" fill="white"/>
<path d="M14.7993 14.6638H6.86927C5.83654 14.6638 5 15.5081 5 16.5485V24.5458C5 25.5862 5.83654 26.4305 6.86927 26.4305H14.7993C15.8321 26.4305 16.6675 25.5862 16.6675 24.5458V16.5485C16.6686 15.507 15.8321 14.6638 14.7993 14.6638Z" fill="#1677FF"/>
<path d="M14.6064 22.0527C14.1402 21.8951 13.5131 21.6537 12.8154 21.3991C13.2342 20.664 13.5693 19.8275 13.7897 18.9182H11.4895V18.0827H14.3066V17.6165H11.4895V16.2234H10.3399C10.1383 16.2234 10.1383 16.424 10.1383 16.424V17.6154H7.28916V18.0816H10.1383V18.9171H7.78514V19.3833H12.3481C12.1817 19.963 11.9568 20.5086 11.6912 21.0035C10.211 20.5108 8.63049 20.1118 7.63855 20.3576C7.0037 20.5152 6.5948 20.7963 6.35453 21.0916C5.25237 22.444 6.04262 24.4984 8.37038 24.4984C9.74698 24.4984 11.0729 23.7247 12.1001 22.4495C13.6332 23.1924 16.6675 24.4687 16.6675 24.4687V22.6501C16.6686 22.6501 16.2872 22.6192 14.6064 22.0527ZM8.15326 23.7126C6.338 23.7126 5.80124 22.271 6.6984 21.4818C6.99819 21.2151 7.54487 21.085 7.83584 21.0564C8.91375 20.9495 9.91231 21.3639 11.0905 21.9436C10.2628 23.0325 9.20803 23.7126 8.15326 23.7126Z" fill="white"/>
<path d="M30.3354 16.3866C30.3354 16.995 30.7807 17.405 31.4012 17.405C32.0217 17.405 32.467 16.995 32.467 16.3866C32.467 15.7892 32.0217 15.3682 31.4012 15.3682C30.7807 15.3682 30.3354 15.7892 30.3354 16.3866Z" fill="#1677FF"/>
<path d="M29.2112 15.6249H27.3618V24.171H29.2112V15.6249Z" fill="black"/>
<path d="M24.1192 15.9181H21.6371L18.863 24.1722H20.5724L21.0408 22.5564H23.9792L24.4245 24.1722H26.6134L24.1192 15.9181ZM21.4266 21.2096L22.5266 17.4049H22.5729L23.6144 21.2096H21.4266Z" fill="black"/>
<path d="M32.3259 17.8965H30.4765V24.1722H32.3259V17.8965Z" fill="black"/>
<path d="M51.6556 17.9086L51.6666 17.8965H49.923L48.822 21.7133H48.7635L47.4994 17.8965H45.4273L47.9204 24.1953L46.8789 26.1153V26.1616H48.5056L51.6556 17.9086Z" fill="black"/>
<path d="M36.9274 17.7676C36.2485 17.7676 35.7216 18.0255 35.1243 18.517V17.8965H33.2748V26.1616H35.1243V24.1127C35.4759 24.2064 35.8032 24.2538 36.2011 24.2538C37.8521 24.2538 39.3389 23.0359 39.3389 20.8702C39.3389 18.9271 38.2621 17.7676 36.9274 17.7676ZM35.7558 23.0943C35.5453 23.0943 35.3458 23.0712 35.1232 23.0006V19.606C35.51 19.3371 35.8252 19.2081 36.2231 19.2081C36.9142 19.2081 37.4642 19.7581 37.4642 20.9297C37.4653 22.4275 36.6574 23.0943 35.7558 23.0943Z" fill="black"/>
<path d="M45.0636 22.6028V19.9807C45.0636 18.5523 44.2204 17.7676 42.7336 17.7676C41.7847 17.7676 41.13 17.9318 39.9352 18.2944L40.2626 19.7349C41.3515 19.2434 41.831 19.0329 42.3346 19.0329C42.943 19.0329 43.2131 19.466 43.2131 20.1339V20.1802C41.0936 20.5781 40.4378 20.8007 40.0289 21.2107C39.7247 21.5149 39.5958 21.9481 39.5958 22.4518C39.5958 23.6575 40.5326 24.3012 41.4099 24.3012C42.0657 24.3012 42.5925 24.0554 43.3067 23.5165L43.4357 24.1722H45.2851L45.0636 22.6028ZM43.2142 22.6502C42.7226 22.9191 42.4416 23.0249 42.1142 23.0249C41.6689 23.0249 41.3879 22.7317 41.3879 22.2644C41.3879 22.0892 41.4232 21.9128 41.5631 21.7728C41.7858 21.5502 42.2189 21.386 43.2142 21.1523V22.6502Z" fill="black"/>
<rect x="0.5" y="0.5" width="57" height="39" rx="5.5" stroke="#F2F4F7"/>
</svg>
