<svg width="58" height="40" viewBox="0 0 58 40" fill="none" xmlns="http://www.w3.org/2000/svg">
<rect x="0.5" y="0.5" width="57" height="39" rx="5.5" fill="white"/>
<path fill-rule="evenodd" clip-rule="evenodd" d="M11.5596 22.9446C11.2496 23.1216 10.9197 23.2099 10.5699 23.2099H10.2999C10.2298 23.2099 10.1297 23.2039 9.8405 23.1512L10.8183 18.8685C10.9982 18.7021 11.1922 18.5941 11.4172 18.5419C11.6421 18.4899 11.787 18.4758 11.9271 18.4758C12.3568 18.4758 12.6892 18.6042 12.8493 18.8854C13.0091 19.1663 13.0892 19.5566 13.0892 20.0562C13.0892 20.4622 13.0241 20.8525 12.8943 21.2272C12.7642 21.6018 12.5868 21.9375 12.362 22.2342C12.137 22.5308 11.8694 22.7677 11.5596 22.9446ZM13.7641 16.7933C13.414 16.6164 12.9993 16.5279 12.5193 16.5279C12.2893 16.5279 12.0744 16.5539 11.8746 16.6059C11.6744 16.6582 11.4859 16.7255 11.2861 16.8191L12.2046 12.7965L9.88004 13.1712L7.28571 24.5214C7.57558 24.6672 7.88289 24.7816 8.20799 24.8648C8.53275 24.948 8.84018 25.0104 9.13016 25.0521C9.42003 25.0937 9.67762 25.117 9.90258 25.1224C10.1275 25.1275 10.285 25.1302 10.3749 25.1302C11.0746 25.1302 11.7246 24.9921 12.3244 24.7164C12.9243 24.4408 13.444 24.0662 13.8841 23.5924C14.3239 23.1188 14.6713 22.562 14.9263 21.9219C15.1813 21.2818 15.3087 20.6026 15.3087 19.8844C15.3087 19.4161 15.2536 18.979 15.1437 18.5731C15.0336 18.1671 14.8637 17.8134 14.6338 17.5114C14.4038 17.2096 14.1139 16.9703 13.7641 16.7933ZM19.9121 15.526L20.2536 14.0303H18.0269L17.6853 15.526H19.9121ZM23.1342 23.1479C22.8473 23.1479 22.6218 23.1054 22.4581 23.0199C22.294 22.9347 22.1788 22.8146 22.1123 22.6599C22.0454 22.5054 22.0201 22.3213 22.0354 22.1079C22.0508 21.8946 22.0892 21.6654 22.1507 21.4199L22.8269 18.4758H25.3628L25.8238 16.5237H23.2725L23.8566 14.0436L21.4744 14.4277L19.9682 21.0518C19.8453 21.5958 19.7735 22.1134 19.7531 22.6039C19.7324 23.0947 19.8042 23.5294 19.9682 23.9079C20.132 24.2867 20.4086 24.5854 20.7982 24.8039C21.1874 25.0224 21.7356 25.1319 22.4427 25.1319C22.9344 25.1319 23.3595 25.0892 23.7183 25.0039C23.7553 24.9951 23.8116 24.9809 23.8481 24.9717L24.3118 22.9522C24.1561 23.0075 23.9997 23.0446 23.8489 23.0759C23.6184 23.1239 23.3802 23.1479 23.1342 23.1479ZM50.1905 16.5264H47.9638L46.6686 22.1992H46.6709L46.4929 22.9795C46.3687 23.0159 46.245 23.0485 46.1222 23.0741C45.8917 23.1221 45.6535 23.1462 45.4075 23.1462C45.1205 23.1462 44.8951 23.1036 44.7313 23.0181C44.5673 22.9328 44.4521 22.8129 44.3855 22.6581C44.3187 22.5036 44.2933 22.3196 44.3087 22.1061C44.3241 21.8928 44.3625 21.6636 44.424 21.4181L45.1001 18.474L45.5458 16.5219L45.546 16.5214H43.2712L42.2415 21.0501C42.1186 21.5941 42.0468 22.1116 42.0264 22.6022C42.0057 23.0929 42.0775 23.5277 42.2415 23.9061C42.4053 24.2849 42.6819 24.5837 43.0715 24.8022C43.4607 25.0206 44.0089 25.1302 44.7159 25.1302C45.2077 25.1302 45.6328 25.0875 45.9916 25.0021C46.0041 24.9992 46.0162 24.996 46.0284 24.9929L46.0285 24.9929L46.0342 24.9914L46.0332 24.9956C45.9335 25.4629 45.7316 25.8418 45.4077 26.1375C45.0833 26.4335 44.6022 26.5815 43.9641 26.5815C43.6917 26.5815 43.4441 26.5647 43.2199 26.5324L42.7816 28.452C43.078 28.492 43.4067 28.5126 43.7696 28.5126C44.4476 28.5126 45.0412 28.4319 45.5498 28.2711C46.0584 28.1101 46.4945 27.8662 46.8586 27.5391C47.2225 27.2121 47.5267 26.8018 47.7711 26.309C48.0154 25.8157 48.2123 25.232 48.362 24.5569L49.9027 17.8137L49.8972 17.8112L50.1905 16.5264ZM39.2688 18.4758C38.2305 18.4758 38.0322 18.4758 37.6068 18.7055C37.3048 18.8685 37.0548 19.1135 36.8353 19.3994C36.6155 19.6854 36.4433 20.0153 36.3186 20.3895C36.1936 20.7639 36.1313 21.1537 36.1313 21.5591C36.1313 22.0581 36.2111 22.4534 36.3711 22.7443C36.5306 23.0355 36.8253 23.1809 37.2547 23.1809C37.4843 23.1809 37.6915 23.1342 37.8764 23.0405C38.061 22.947 38.2583 22.791 38.468 22.5727C38.488 22.313 38.5205 22.0402 38.5654 21.7541C38.6065 21.4928 38.6576 21.2489 38.7043 21.026L38.7173 20.9639L39.2688 18.4758ZM40.8497 21.372C40.7097 21.9647 40.6698 22.5597 40.7298 23.1575C40.7898 23.7555 41.0094 24.6716 41.2236 25.1302H39.0688C38.8727 24.7848 38.8293 24.5762 38.7993 24.4319C38.789 24.3826 38.7803 24.3408 38.7676 24.3037C38.4879 24.5429 38.1784 24.7403 37.839 24.8962C37.4994 25.0521 37.1199 25.1302 36.7005 25.1302C36.2012 25.1302 35.7742 25.0391 35.4199 24.8573C35.0652 24.6755 34.7757 24.4311 34.5511 24.1244C34.3263 23.8179 34.1639 23.4592 34.0643 23.0484C33.9643 22.6378 33.9145 22.1985 33.9145 21.7307C33.9145 21.0134 34.0366 20.3376 34.2815 19.7035C34.526 19.0694 34.8656 18.5158 35.3001 18.0426C35.7343 17.5696 36.7827 16.5266 38.503 16.5266L41.9576 16.5264L40.8497 21.372ZM28.4547 23.2144C28.2033 23.2144 27.9922 23.1935 27.8213 23.1515L28.8996 18.4758C28.8996 18.4758 29.4482 18.4758 29.7785 18.4771C30.2509 18.4791 30.5859 18.646 30.777 18.96C30.9679 19.274 31.0635 19.6562 31.0635 20.1061C31.0635 20.5667 31.0005 20.9878 30.875 21.3698C30.7491 21.752 30.5734 22.0789 30.3472 22.3509C30.121 22.6232 29.847 22.8351 29.5254 22.9868C29.2035 23.1386 28.8468 23.2144 28.4547 23.2144ZM32.9333 22.0291C33.1746 21.3961 33.2952 20.6975 33.2952 19.9333C33.2952 19.4624 33.2322 19.0204 33.1067 18.6067C32.9809 18.1935 32.7874 17.8324 32.5262 17.5235C32.2646 17.2149 31.9306 16.9716 31.5234 16.7936C31.1162 16.6157 30.6311 16.5267 30.0682 16.5267L29.2932 16.5267H29.2909H29.2905H29.2899H29.2889C28.4649 16.5266 27.3645 16.5265 27.0944 16.5267L24.5038 27.8769H26.7356L27.4142 25.0354C27.7558 25.0983 28.0977 25.1296 28.4396 25.1296C29.1432 25.1296 29.7942 25.0013 30.3924 24.7451C30.9904 24.4887 31.5031 24.1303 31.9306 23.6696C32.3577 23.2093 32.6921 22.6625 32.9333 22.0291ZM15.4889 25.1319L17.4547 16.5215H19.6815L17.7157 25.1319H15.4889Z" fill="#002855"/>
<rect x="0.5" y="0.5" width="57" height="39" rx="5.5" stroke="#F2F4F7"/>
</svg>
