<svg width="58" height="40" viewBox="0 0 58 40" fill="none" xmlns="http://www.w3.org/2000/svg">
<rect x="0.5" y="0.5" width="57" height="39" rx="5.5" fill="white"/>
<path d="M7.29841 18.0131C6.90705 18.0131 6.86846 17.8861 6.86846 16.9598V16.8018C6.86846 15.8723 6.90705 15.7465 7.29841 15.7465H16.2474C16.6401 15.7465 16.6787 15.8723 16.6787 16.8005V16.9586C16.6787 17.8861 16.6394 18.0125 16.2474 18.0125H7.29841V18.0131ZM7.29841 13.9345C6.90705 13.9345 6.86846 13.8081 6.86846 12.8805V12.7225C6.86846 11.7918 6.90705 11.6666 7.29841 11.6666H16.2474C16.6401 11.6666 16.6787 11.7931 16.6787 12.7225V12.8805C16.6787 13.8081 16.6394 13.9345 16.2474 13.9345H7.29841ZM8.63903 26.0471C8.63903 24.512 9.44002 23.668 10.6452 23.668C11.1002 23.668 11.4645 23.7919 11.9202 24.0037C12.0854 24.0821 12.2222 24.0505 12.4388 23.5706L12.5966 23.2444C12.7523 22.8511 12.7638 22.6886 12.5749 22.6014C12.0163 22.296 11.1517 22.1032 10.4049 22.1032C8.27679 22.1032 6.66669 23.6775 6.66669 26.0471C6.66669 28.4162 8.27679 29.9905 10.4042 29.9905C11.1517 29.9905 12.036 29.7983 12.5966 29.491C12.7835 29.4056 12.7713 29.2413 12.6169 28.848L12.4612 28.5034C12.2445 28.0229 12.1071 27.9957 11.9405 28.0703C11.4848 28.2834 11.1009 28.4073 10.6452 28.4073C9.44002 28.4073 8.64106 27.5816 8.64106 26.0471H8.63971H8.63903ZM33.9958 29.6276C33.9958 29.8362 33.9118 29.8931 33.2801 29.8931H33.2172C32.5516 29.8931 32.4588 29.8647 32.4067 29.7123C32.3718 29.6089 32.344 29.5035 32.3234 29.3968C31.9713 29.7901 31.5468 30 30.9002 30C29.3321 30 28.3896 28.9251 28.3896 27.1966C28.3896 25.3283 29.4384 24.2218 30.9936 24.2218C31.4317 24.2218 31.8352 24.3483 32.1467 24.5784V22.1506C32.1467 21.9881 32.167 21.9204 33.0404 21.9204H33.1034C33.9118 21.9204 33.9951 21.9881 33.9951 22.1506V29.6276H33.9958ZM32.1474 25.9416C32.0406 25.8326 31.9107 25.7456 31.7659 25.6862C31.6211 25.6267 31.4646 25.5961 31.3064 25.5963C30.6104 25.5963 30.28 26.1609 30.28 27.1978C30.28 27.7921 30.4147 28.1696 30.6104 28.3675C30.7864 28.5717 31.0573 28.6375 31.3179 28.6375C31.6396 28.6375 31.888 28.5635 32.0031 28.4263C32.1054 28.3213 32.1467 28.1589 32.1467 27.7846V25.9409L32.148 25.9416H32.1474ZM43.4181 29.6655C43.4181 29.8267 43.3348 29.8931 42.5243 29.8931H42.4621C41.59 29.8931 41.5717 29.8267 41.5717 29.6655V22.1506C41.5717 21.9881 41.59 21.9204 42.4614 21.9204H42.5237C43.3335 21.9204 43.4174 21.9881 43.4174 22.1506V29.6655H43.4181ZM36.9154 27.6676C37.0183 28.3485 37.4747 28.676 38.1917 28.676C38.7435 28.676 39.2601 28.5622 39.8641 28.3213C39.99 28.2739 40.1031 28.3213 40.2365 28.7026L40.3313 28.9163C40.4647 29.3095 40.4531 29.3968 40.3096 29.472C39.5919 29.8457 38.8451 29.9987 38.0143 29.9987C36.178 29.9987 35.0263 28.9555 35.0263 27.1694C35.0263 25.4326 36.0846 24.2218 37.9012 24.2218C39.6982 24.2218 40.6204 25.413 40.6204 27.0632C40.6204 27.6107 40.5696 27.6676 40.3617 27.6676H36.9154ZM38.7719 26.6035C38.7435 26.0294 38.4943 25.5287 37.8816 25.5287C37.3501 25.5287 36.9655 25.9017 36.893 26.6035H38.7719ZM46.2943 27.6676C46.3959 28.3485 46.8536 28.676 47.5713 28.676C48.1184 28.676 48.6398 28.5622 49.2417 28.3213C49.3649 28.2739 49.4814 28.3213 49.6154 28.7026L49.7096 28.9163C49.8429 29.3095 49.8321 29.3968 49.6892 29.472C48.9715 29.8457 48.2234 29.9987 47.3919 29.9987C45.555 29.9987 44.4046 28.9555 44.4046 27.1694C44.4046 25.4326 45.4609 24.2218 47.2781 24.2218C49.0765 24.2218 50 25.413 50 27.0632C50 27.6107 49.9479 27.6676 49.74 27.6676H46.2937H46.2943ZM48.1529 26.6035C48.1191 26.0294 47.872 25.5287 47.2592 25.5287C46.7297 25.5287 46.3438 25.9017 46.272 26.6035H48.1529ZM25.4348 25.9795C25.3412 25.8642 25.2205 25.7706 25.0819 25.7059C24.9434 25.6412 24.7907 25.6072 24.6358 25.6065C23.9398 25.6065 23.6087 26.1723 23.6087 27.1789C23.6087 28.0324 23.8551 28.6665 24.6135 28.6665C24.8951 28.6665 25.101 28.5995 25.2479 28.4636C25.3819 28.3308 25.4348 28.1475 25.4348 27.7466V25.9795ZM27.3035 29.6276C27.3035 29.8362 27.2216 29.8931 26.5885 29.8931H26.5032C25.8397 29.8931 25.7462 29.8647 25.6948 29.7123C25.6591 29.6091 25.6313 29.5037 25.6115 29.3968C25.2594 29.7901 24.8328 30 24.1882 30C22.6831 30 21.7169 28.9428 21.7169 27.2181C21.7169 25.2992 22.9113 24.2218 24.3237 24.2218C24.8951 24.2218 25.3921 24.4444 25.6629 24.7605L25.6948 24.5203C25.7036 24.4065 25.7367 24.3306 26.4192 24.3306H26.493C27.1999 24.3306 27.3022 24.3767 27.3022 24.5519V29.6276H27.3035ZM18.6375 22.7089C19.3322 22.7089 19.3742 22.7171 19.3742 22.9283V24.3293H20.5692C20.7344 24.3293 20.7859 24.3578 20.7859 24.8851V24.9628C20.7859 25.4889 20.7344 25.5192 20.5692 25.5192H19.3742V28.0337C19.3742 28.4547 19.4561 28.676 19.8712 28.676C20.0878 28.676 20.2774 28.6375 20.4643 28.5812C20.6606 28.511 20.7351 28.5995 20.8692 29.0396L20.9003 29.1452C21.0452 29.6276 21.0026 29.6655 20.8177 29.7502C20.444 29.9133 19.9443 30 19.4778 30C18.0038 30 17.5887 29.3095 17.5887 28.1083V25.5192H16.8927C16.7166 25.5192 16.6726 25.4876 16.6726 24.9628V24.8851C16.6726 24.3578 16.716 24.3306 16.8927 24.3306H17.6713C17.756 23.8798 17.8995 23.245 17.9936 22.9283C18.0458 22.7455 18.0769 22.7089 18.6375 22.7089ZM14.7754 24.3306C15.5859 24.3306 15.6577 24.3957 15.6577 24.5601V29.6655C15.6577 29.8362 15.5859 29.8931 14.7754 29.8931H14.7226C13.8309 29.8931 13.8106 29.8362 13.8106 29.6655V24.5601C13.8106 24.3957 13.8309 24.3306 14.7226 24.3306H14.7754ZM14.7226 21.8351C15.3076 21.8351 15.7315 22.2568 15.7315 22.736C15.7289 22.8562 15.7007 22.9746 15.6486 23.0844C15.5966 23.1943 15.5216 23.2933 15.4281 23.3759C15.2386 23.5434 14.9847 23.6345 14.7226 23.6288C14.1444 23.6288 13.7158 23.2071 13.7158 22.736C13.7158 22.2555 14.1444 21.8351 14.7226 21.8351Z" fill="#EE293D"/>
<rect x="0.5" y="0.5" width="57" height="39" rx="5.5" stroke="#F2F4F7"/>
</svg>
