<svg width="58" height="40" viewBox="0 0 58 40" fill="none" xmlns="http://www.w3.org/2000/svg">
<rect x="0.5" y="0.5" width="57" height="39" rx="5.5" fill="white"/>
<path fill-rule="evenodd" clip-rule="evenodd" d="M26.3974 32.1667H30.7242C37.4782 32.1667 42.8603 26.8083 43.0714 20.1891V20.0841C42.9659 13.3599 37.4782 7.89642 30.7242 8.00149H25.8697C19.4322 8.21162 14.3667 13.6751 14.5778 20.1891C14.5778 26.7032 19.8544 32.0616 26.3974 32.1667ZM16.6884 20.084C16.6884 14.6206 21.2263 10.1028 26.714 10.1028C32.2016 10.1028 36.7395 14.6206 36.7395 20.084C36.7395 25.5475 32.2016 30.0653 26.714 30.0653C21.2263 30.0653 16.6884 25.5475 16.6884 20.084ZM28.2969 26.8083V13.4649C31.9906 14.4105 34.3123 18.0878 33.3625 21.7651C32.7293 24.2867 30.8297 26.1779 28.2969 26.8083ZM20.171 18.403C19.2212 22.0803 21.4374 25.8627 25.131 26.8083V13.4649C22.7037 14.0953 20.8042 15.9865 20.171 18.403Z" fill="#0079BE"/>
<rect x="0.5" y="0.5" width="57" height="39" rx="5.5" stroke="#F2F4F7"/>
</svg>
