<svg width="58" height="40" viewBox="0 0 58 40" fill="none" xmlns="http://www.w3.org/2000/svg">
<rect x="0.5" y="0.5" width="57" height="39" rx="5.5" fill="white"/>
<ellipse cx="28.225" cy="19.8916" rx="13.225" ry="13.225" fill="#6481E7"/>
<path fill-rule="evenodd" clip-rule="evenodd" d="M22.4474 20.4297L28.3796 23.9366V10.5863L22.4474 20.4297Z" fill="white"/>
<path fill-rule="evenodd" clip-rule="evenodd" d="M28.3801 10.5863V23.9366L34.3124 20.4297L28.3801 10.5863Z" fill="#C1CCF5"/>
<path fill-rule="evenodd" clip-rule="evenodd" d="M28.3801 17.7334L22.4474 20.4295L28.3797 23.9364L34.3123 20.4299L28.3801 17.7334Z" fill="#8299EC"/>
<path fill-rule="evenodd" clip-rule="evenodd" d="M28.3801 17.7334L22.4474 20.4295L28.3797 23.9364L28.3801 17.7334Z" fill="#C1CCF5"/>
<path fill-rule="evenodd" clip-rule="evenodd" d="M22.4474 21.5548L28.3797 29.9147V25.0598L22.4474 21.5548Z" fill="white"/>
<path fill-rule="evenodd" clip-rule="evenodd" d="M28.3801 25.0598V29.9151L34.3163 21.5548L28.3801 25.0598Z" fill="#C1CCF5"/>
<rect x="0.5" y="0.5" width="57" height="39" rx="5.5" stroke="#F2F4F7"/>
</svg>
