<svg width="58" height="40" viewBox="0 0 58 40" fill="none" xmlns="http://www.w3.org/2000/svg">
<rect x="0.5" y="0.5" width="57" height="39" rx="5.5" fill="white"/>
<path fill-rule="evenodd" clip-rule="evenodd" d="M24.1784 17.7602H16.8783H16.757C17.3144 10.5902 20.2269 8.4213 27.8137 8.33411C27.9304 8.33337 28.0441 8.33337 28.1593 8.33337H28.3644C28.48 8.33337 28.5932 8.33337 28.7104 8.33411C29.6713 8.34512 30.5565 8.38991 31.3724 8.47343C31.3126 8.47544 31.254 8.47746 31.1882 8.48462C31.1271 8.49068 31.0505 8.49523 30.9601 8.50061C30.0624 8.554 27.7986 8.68862 25.7274 11.1908C24.5029 12.6715 24.3816 17.7602 24.3816 17.7602H24.1784ZM23.6382 26.4848C22.7823 27.5553 21.5501 27.4833 21.5329 27.4823V31.833C18.4844 30.6023 17.1103 28.0361 16.752 23.3042C16.7087 22.7341 16.6828 22.233 16.6667 21.8178L24.3818 21.8149L24.3766 22.2741C24.3676 23.0676 24.3499 24.61 24.3519 24.6614C24.3577 24.8874 24.3007 25.6574 23.6382 26.4848ZM33.815 8.90329C37.6918 9.93578 39.371 12.5162 39.7718 17.8172C39.8967 19.4637 39.8823 20.5604 39.8823 20.5604C39.8823 20.5604 39.8968 21.6577 39.772 23.304C39.2263 30.5199 36.3172 32.6996 28.7105 32.7871C28.5934 32.7879 27.9306 32.7879 27.8139 32.7871C26.4945 32.7717 25.3206 32.6919 24.2718 32.5359C24.2763 32.5358 24.2808 32.5358 24.2853 32.5357C24.3175 32.5354 24.349 32.5352 24.3818 32.5329C25.7581 32.454 27.6742 31.3925 28.8146 28.9231C29.3128 27.8433 29.4466 25.9156 29.4466 25.9156V21.8158H29.4469V21.8147H33.6132H33.8153V17.7598H33.6132H29.4473C29.4473 17.7598 29.4473 17.7592 29.4469 17.759C29.4469 17.759 29.4451 17.7548 29.4436 17.7471L29.4425 17.7418C29.4415 17.7385 29.4406 17.735 29.4396 17.7311C29.4383 17.7263 29.4369 17.7209 29.4348 17.7142C29.4347 17.7128 29.4344 17.7111 29.4341 17.7092C29.4337 17.7066 29.4332 17.7038 29.433 17.7014C29.4299 17.6896 29.4271 17.6783 29.4249 17.6627C29.4238 17.6588 29.4232 17.6542 29.4225 17.6496C29.4221 17.6464 29.4216 17.6433 29.4211 17.6403C29.4181 17.625 29.4157 17.6096 29.4133 17.5914C29.4116 17.5843 29.411 17.5754 29.4104 17.5671C29.4103 17.5651 29.4102 17.5632 29.41 17.5613C29.4071 17.5421 29.4051 17.5237 29.4027 17.5017C29.4024 17.4972 29.4022 17.4924 29.402 17.4876C29.4018 17.4806 29.4015 17.4734 29.4009 17.4668C29.4006 17.4622 29.4003 17.4576 29.4 17.453C29.3987 17.4342 29.3975 17.4154 29.3972 17.3943C29.397 17.3881 29.397 17.3814 29.397 17.3748C29.397 17.3682 29.397 17.3615 29.3968 17.3552C29.3968 17.3461 29.3966 17.337 29.3965 17.3278C29.3961 17.3092 29.3957 17.2903 29.3968 17.2699C29.3968 17.2628 29.3973 17.2552 29.3978 17.2474C29.3981 17.2415 29.3985 17.2355 29.3987 17.2297C29.3994 17.1972 29.4007 17.1649 29.4042 17.1289C29.4045 17.1237 29.4051 17.1182 29.4057 17.1125C29.4064 17.1064 29.4071 17.1002 29.4075 17.0942C29.411 17.0549 29.4155 17.0153 29.4216 16.9731C29.422 16.9691 29.4228 16.9649 29.4236 16.9608C29.4243 16.9568 29.4251 16.9528 29.4255 16.949C29.4328 16.9013 29.4407 16.8528 29.4512 16.8018C29.4512 16.8007 29.4515 16.799 29.4519 16.7974C29.5257 16.4429 29.6839 16.0066 30.0009 15.5123C30.8533 14.186 33.274 14.2484 33.7382 14.273C33.7742 14.2751 33.7985 14.2768 33.809 14.2775C33.8128 14.2778 33.8148 14.2779 33.815 14.2779V8.90329ZM24.1174 32.5105C24.1387 32.511 24.1602 32.5114 24.1817 32.5115C24.1602 32.5114 24.1389 32.511 24.1177 32.5105L24.1174 32.5105Z" fill="#659AD2"/>
<rect x="0.5" y="0.5" width="57" height="39" rx="5.5" stroke="#F2F4F7"/>
</svg>
