<svg width="58" height="40" viewBox="0 0 58 40" fill="none" xmlns="http://www.w3.org/2000/svg">
<rect x="0.5" y="0.5" width="57" height="39" rx="5.5" fill="white"/>
<path d="M32.096 19.5096C32.096 25.6821 27.1497 30.6859 21.048 30.6859C14.9464 30.6859 10 25.6821 10 19.5096C10 13.3372 14.9464 8.33337 21.048 8.33337C27.1497 8.33337 32.096 13.3372 32.096 19.5096Z" fill="#ED0006"/>
<path d="M46.4286 19.5096C46.4286 25.6821 41.4822 30.6859 35.3805 30.6859C29.2789 30.6859 24.3325 25.6821 24.3325 19.5096C24.3325 13.3372 29.2789 8.33337 35.3805 8.33337C41.4822 8.33337 46.4286 13.3372 46.4286 19.5096Z" fill="#0099DF"/>
<path fill-rule="evenodd" clip-rule="evenodd" d="M28.2143 28.016C30.5898 25.9661 32.096 22.9158 32.096 19.5097C32.096 16.1035 30.5898 13.0532 28.2143 11.0033C25.8389 13.0532 24.3326 16.1035 24.3326 19.5097C24.3326 22.9158 25.8389 25.9661 28.2143 28.016Z" fill="#6C6BBD"/>
<rect x="0.5" y="0.5" width="57" height="39" rx="5.5" stroke="#F2F4F7"/>
</svg>
