<svg width="58" height="40" viewBox="0 0 58 40" fill="none" xmlns="http://www.w3.org/2000/svg">
<rect x="0.5" y="0.5" width="57" height="39" rx="5.5" fill="white"/>
<path fill-rule="evenodd" clip-rule="evenodd" d="M6.66666 24.0104C6.69551 23.8553 6.72193 23.7052 6.74784 23.558C6.78787 23.3304 6.82666 23.11 6.87126 22.8895C7.06011 21.8924 7.25028 20.8966 7.44044 19.9008L7.44045 19.9008L7.44045 19.9008L7.44046 19.9007L7.44046 19.9007L7.44047 19.9007C7.63064 18.9048 7.82081 17.909 8.00968 16.9118C8.03591 16.7855 8.07263 16.7013 8.19854 16.6803C9.17957 16.5329 10.1659 16.4277 11.1469 16.675C12.002 16.8855 12.6001 17.4906 12.6998 18.201C12.9044 19.6165 12.0807 20.7479 10.8583 21.1531C10.2131 21.3635 9.5573 21.4162 8.89103 21.353C8.73365 21.3372 8.68643 21.3793 8.6602 21.5319C8.51855 22.3054 8.37166 23.0737 8.21952 23.842C8.20903 23.9051 8.15132 24.0051 8.1146 24.0051C7.75807 24.013 7.4074 24.012 7.04291 24.011H7.0429H7.0429H7.04289H7.04289H7.04289C6.91932 24.0107 6.79416 24.0104 6.66666 24.0104ZM8.92251 20.1006C9.02508 20.1006 9.12441 20.1033 9.2212 20.106C9.4264 20.1116 9.62018 20.1168 9.80912 20.0954C10.3547 20.0375 10.7901 19.7902 11.0367 19.2692C11.3148 18.6799 11.1154 18.0537 10.5908 17.8695C10.2183 17.738 9.83535 17.7643 9.45238 17.8169C9.40516 17.8222 9.34221 17.8958 9.33171 17.9432C9.25833 18.3289 9.18495 18.7162 9.10882 19.1181L9.10881 19.1181L8.92251 20.1006ZM15.9681 23C15.8851 23.0866 15.8074 23.1738 15.7314 23.2589L15.7314 23.2589C15.5672 23.4428 15.4113 23.6175 15.2284 23.7578C14.6776 24.184 14.048 24.2787 13.4132 23.9841C12.7837 23.6946 12.5266 23.1316 12.5004 22.4686C12.4427 21.0741 12.9306 19.9217 14.1005 19.1219C14.835 18.6167 15.6796 18.4641 16.5557 18.5115C16.8455 18.5286 17.1331 18.579 17.4214 18.6296C17.5766 18.6568 17.7321 18.6841 17.8882 18.7062C18.0666 18.7325 18.0928 18.8325 18.0614 18.9851C18.0192 19.2052 17.9767 19.425 17.9341 19.6447C17.7752 20.4651 17.6167 21.2837 17.4843 22.1055C17.4083 22.576 17.378 23.0579 17.348 23.535L17.348 23.5353L17.348 23.5357C17.3428 23.6187 17.3376 23.7015 17.3321 23.7841C17.3216 23.9525 17.2797 24.0209 17.1066 24.0156C16.7813 24.0051 16.456 24.0051 16.1308 24.0156C15.9629 24.0209 15.9052 23.9577 15.9209 23.7946C15.9359 23.6143 15.9455 23.4287 15.9555 23.2358L15.9556 23.2354L15.9557 23.2333C15.9596 23.1567 15.9637 23.079 15.9681 23ZM16.3354 19.748C15.8265 19.606 15.4016 19.7059 15.0448 20.0059C14.3733 20.5742 14.069 21.3109 14.1267 22.1896C14.1425 22.458 14.2474 22.7158 14.5307 22.8316C14.814 22.9474 15.071 22.8632 15.2914 22.6737C15.4225 22.558 15.5485 22.4264 15.6429 22.2791C16.0129 21.7126 16.114 21.0736 16.2167 20.4245L16.2167 20.4245C16.2523 20.1993 16.2881 19.973 16.3354 19.748ZM23.7692 22.6948C24.0577 23.621 24.8499 24.1366 26.2401 24.1366C27.1949 24.1103 28.1445 23.5683 28.7373 22.4528C29.0521 21.8529 29.1675 21.2109 29.1255 20.5374C29.0888 19.8901 28.8317 19.3429 28.3071 18.9535C27.7563 18.543 27.1267 18.4589 26.4552 18.5325C24.2099 18.7851 23.2918 21.1688 23.7692 22.6948ZM25.2632 21.9221V21.922V21.922V21.9219V21.9218C25.2638 21.895 25.2643 21.8684 25.2643 21.8424C25.2801 21.2372 25.427 20.6742 25.7889 20.1743C25.9516 19.9533 26.1562 19.7849 26.429 19.7217C26.9851 19.5955 27.4415 19.9164 27.4939 20.5216C27.5569 21.2635 27.3785 21.9476 26.9116 22.5422C26.7333 22.7632 26.5077 22.9158 26.2191 22.9421C25.6998 22.9895 25.3063 22.6369 25.2643 22.0844C25.2608 22.0316 25.262 21.9764 25.2632 21.9221ZM30.3741 18.643H31.7067C31.6857 18.9272 31.6647 19.2008 31.6385 19.4797C31.687 19.4343 31.734 19.3895 31.7801 19.3456L31.7801 19.3455C31.8783 19.2519 31.9722 19.1622 32.0686 19.0798C32.588 18.6273 33.1808 18.4273 33.8681 18.5378C34.4347 18.6325 34.8281 19.0482 34.8911 19.6323C34.9595 20.2401 34.8458 20.8296 34.7324 21.4179L34.7075 21.5477C34.6615 21.7866 34.616 22.0255 34.5706 22.2642L34.5705 22.2645L34.5704 22.2649L34.5704 22.2651L34.5704 22.2653L34.5703 22.2654C34.4707 22.7888 34.3712 23.3114 34.2668 23.8314C34.2511 23.8999 34.1724 23.9998 34.1199 24.0051C33.6687 24.0156 33.2176 24.0104 32.7664 24.0051C32.7513 24.0051 32.7361 23.9969 32.7132 23.9844C32.7042 23.9796 32.6942 23.9741 32.6824 23.9683C32.7664 23.5315 32.8503 23.0895 32.929 22.6475C33.0497 21.9687 33.1651 21.2951 33.27 20.6163C33.291 20.5006 33.2805 20.3795 33.2648 20.2638C33.2228 19.8586 32.9238 19.6744 32.5356 19.7954C32.1578 19.9165 31.9322 20.2111 31.7486 20.5374C31.4758 21.0162 31.3814 21.5477 31.287 22.0792C31.2633 22.2109 31.2399 22.3423 31.2166 22.4736C31.1363 22.9246 31.0563 23.3738 30.9669 23.8262C30.9512 23.8946 30.8725 23.9998 30.8201 24.0051C30.4522 24.0177 30.0809 24.0169 29.6851 24.0161C29.5843 24.0158 29.4818 24.0156 29.3774 24.0156C29.7236 22.2055 30.0489 20.4321 30.3741 18.643ZM37.9391 22.9106C37.383 22.8422 37.0105 22.4528 37.0472 21.9055C37.1632 21.9055 37.2786 21.9073 37.3935 21.9091C37.6214 21.9126 37.847 21.916 38.0702 21.9055C38.6106 21.874 39.1404 21.7845 39.6336 21.5372C40.2631 21.2215 40.5569 20.7005 40.5097 20.0217C40.4625 19.3324 40.09 18.8325 39.4237 18.6325C38.427 18.3326 37.5089 18.5431 36.7272 19.2113C35.7776 20.0217 35.4209 21.0952 35.5573 22.3212C35.6517 23.1895 36.1239 23.8104 36.9843 24.0314C37.9076 24.2682 38.8152 24.1419 39.6913 23.7841C39.7542 23.7578 39.8277 23.6578 39.8224 23.5947C39.8098 23.3378 39.7838 23.081 39.7578 22.8242C39.7513 22.76 39.7448 22.6959 39.7385 22.6317C39.7213 22.6317 39.7085 22.6308 39.6986 22.6301C39.6845 22.6291 39.6765 22.6286 39.6703 22.6317C39.6126 22.6527 39.5549 22.6738 39.5024 22.6948C38.9988 22.8895 38.4794 22.9737 37.9391 22.9106ZM38.7522 20.5794C38.4322 20.7478 37.6033 20.8478 37.1993 20.7636C37.2832 20.0638 38.023 19.5165 38.6472 19.6691C38.8571 19.7217 39.0092 19.8322 39.046 20.0585C39.0827 20.2795 38.9725 20.4637 38.7522 20.5794ZM42.2882 21.9266C42.241 22.4423 42.6082 22.837 43.1695 22.9106C43.6942 22.9738 44.1978 22.8948 44.6909 22.7159C44.7364 22.6988 44.7803 22.6817 44.8285 22.663C44.8693 22.6471 44.9132 22.63 44.9637 22.6107C44.974 22.7222 44.9854 22.8314 44.9966 22.9391C45.0198 23.1619 45.0423 23.3783 45.0529 23.5947C45.0582 23.6578 44.9847 23.7578 44.927 23.7841C44.0352 24.1525 43.1171 24.2788 42.178 24.0209C41.3334 23.7894 40.8927 23.1737 40.7878 22.3318C40.6566 21.2531 40.9347 20.2796 41.6849 19.4798C42.4928 18.622 43.4843 18.3168 44.628 18.6326C45.3257 18.8273 45.6982 19.3324 45.7402 20.0428C45.7821 20.7374 45.4674 21.2583 44.8116 21.5635C44.1506 21.8687 43.4476 21.9161 42.7341 21.9319C42.5925 21.9266 42.4456 21.9266 42.2882 21.9266ZM42.4403 20.8058C42.5358 20.7998 42.6295 20.7951 42.7219 20.7905C42.9546 20.7788 43.1788 20.7675 43.4004 20.7374C43.6102 20.7111 43.8201 20.6479 44.0089 20.5585C44.2135 20.469 44.3132 20.2796 44.2817 20.0481C44.2503 19.8271 44.1034 19.7218 43.8988 19.6692C43.2797 19.5008 42.5085 20.0691 42.4403 20.8058ZM46.0286 22.9106C45.9604 23.2684 45.8975 23.621 45.8293 24.0104C45.9344 24.0104 46.0379 24.0106 46.1403 24.0108C46.5439 24.0116 46.9289 24.0124 47.314 23.9998C47.3507 23.9998 47.4084 23.8999 47.4189 23.8367C47.4724 23.5739 47.522 23.3098 47.5716 23.0458C47.663 22.5591 47.7544 22.0726 47.87 21.5951C48.1271 20.5321 48.5625 20.1638 49.596 20.027C49.638 20.0217 49.7062 19.9743 49.7167 19.9375C49.7825 19.6351 49.8415 19.3304 49.9027 19.0143C49.9341 18.8518 49.9662 18.6864 50 18.5168C49.0032 18.4115 48.4471 18.9903 47.9645 19.7007L47.9722 19.5987C47.9959 19.2843 48.02 18.9643 48.0484 18.6273C47.9394 18.6273 47.8323 18.6269 47.7268 18.6266C47.4161 18.6256 47.1184 18.6247 46.8208 18.6325C46.7788 18.6378 46.7002 18.7325 46.6949 18.7904C46.583 20.1428 46.318 21.4656 46.0533 22.7875C46.0451 22.8285 46.0369 22.8695 46.0286 22.9106Z" fill="black"/>
<path fill-rule="evenodd" clip-rule="evenodd" d="M32.1388 12.2948C32.0857 12.2808 32.0325 12.2667 31.9794 12.2549C31.8168 12.2549 31.6542 12.2549 31.481 12.2601C31.4219 12.272 31.3628 12.2849 31.3032 12.298C31.2306 12.3139 31.1572 12.3299 31.0823 12.3443C30.2797 12.4969 29.5242 12.7758 28.795 13.1442C27.2159 13.944 25.7994 14.9806 24.5299 16.2067C23.6852 17.0171 22.8668 17.8643 22.0747 18.7325C20.6844 20.2585 19.4935 21.9371 18.544 23.7788C18.0561 24.7313 17.6154 25.7048 17.4161 26.7624C17.3793 26.9571 17.4423 27.1834 17.5052 27.3781C17.5315 27.457 17.6784 27.5149 17.778 27.5465C17.8043 27.557 17.883 27.4255 17.9197 27.3518C17.9327 27.3233 17.9461 27.294 17.9597 27.2641C18.1876 26.765 18.4956 26.0901 18.7629 25.6432C19.3295 24.6961 19.7768 23.963 20.4116 23.0632C21.4294 21.6161 22.6186 20.1963 23.8671 18.9439C25.0475 17.76 26.2296 16.7013 27.7143 15.9015C28.3963 15.5384 29.094 15.1806 29.8075 14.8859C31.0404 14.3755 32.3257 14.0282 33.6477 13.8335C33.7894 13.8125 33.9782 13.702 34.0254 13.5862C34.0674 13.4809 33.9677 13.281 33.868 13.181C33.4641 12.7653 32.9919 12.4496 32.4044 12.3549C32.3158 12.3417 32.2273 12.3183 32.1388 12.2948ZM20.1283 19.4745C20.3802 18.7904 20.5061 18.08 20.5218 17.3433C20.5148 17.2644 20.509 17.1855 20.5032 17.1065C20.4915 16.9487 20.4798 16.7908 20.4588 16.6329C20.3172 15.4121 19.7926 14.3755 18.9584 13.4862C18.8588 13.3862 18.7224 13.3073 18.586 13.2599C18.4496 13.2073 18.3604 13.2862 18.3709 13.4441C18.3711 13.4474 18.3714 13.4508 18.3716 13.4541C18.3819 13.5878 18.3925 13.7263 18.4181 13.8598C18.4549 14.0701 18.4916 14.2806 18.5282 14.4913C18.6584 15.2401 18.7889 15.9908 18.9322 16.7382C19.0739 17.4907 19.2312 18.2379 19.3991 18.9798C19.4568 19.2166 19.5513 19.4534 19.6667 19.6744C19.7559 19.8428 19.8818 19.827 19.9972 19.6744C20.0496 19.6113 20.1021 19.5481 20.1283 19.4745Z" fill="#FC461E"/>
<rect x="0.5" y="0.5" width="57" height="39" rx="5.5" stroke="#F2F4F7"/>
</svg>
