<svg width="58" height="40" viewBox="0 0 58 40" fill="none" xmlns="http://www.w3.org/2000/svg">
<rect x="0.5" y="0.5" width="57" height="39" rx="5.5" fill="white"/>
<path fill-rule="evenodd" clip-rule="evenodd" d="M32.2363 19.1467H34.0916C34.6798 19.1248 35.0376 19.0782 35.1664 19.0052C35.3422 18.9055 35.4603 18.7058 35.5191 18.4064C35.5566 18.207 35.5754 17.9107 35.5754 17.517C35.5754 17.0348 35.5381 16.6774 35.4631 16.4439C35.3561 16.1168 35.0997 15.9176 34.6936 15.8453C34.6134 15.8344 34.4212 15.8286 34.1167 15.8286H32.2363V19.1467ZM29.2601 24.7357V13.3334H34.8047C35.5652 13.3334 36.1456 13.3974 36.5443 13.5254C37.4562 13.82 38.0681 14.4233 38.3814 15.335C38.5432 15.8135 38.6241 16.5339 38.6241 17.4959C38.6241 18.6525 38.5344 19.4837 38.3569 19.9897C38.0013 20.9904 37.2692 21.5668 36.1638 21.7162C36.0338 21.7386 35.4807 21.7587 34.5045 21.7747L34.0104 21.7918H32.2361V24.7357H29.2601ZM14.3166 16.9706H17.0852C17.103 16.7187 17.112 16.5303 17.112 16.4043C17.112 14.8679 16.5097 13.9329 15.3049 13.5991C14.8112 13.4626 13.9831 13.3937 12.8211 13.3937C12.083 13.3937 11.412 13.4215 10.8071 13.4759C10.0801 13.5362 9.4829 13.738 9.01619 14.0817C8.69758 14.3057 8.46671 14.6331 8.32344 15.0644C8.1803 15.4956 8.10866 16.0689 8.10866 16.7838C8.10866 17.7225 8.2412 18.4242 8.50615 18.8881C8.80758 19.4339 9.41166 19.7934 10.3181 19.9683C10.6623 20.029 11.277 20.0917 12.1619 20.1568C13.2638 20.2333 13.8812 20.2936 14.0138 20.3369C14.3687 20.4465 14.5464 20.7519 14.5464 21.2539C14.5464 21.478 14.5253 21.6612 14.483 21.8027C14.4031 22.0326 14.2361 22.1987 13.9816 22.3019C13.8386 22.357 13.5071 22.3844 12.9877 22.3844H11.9699C11.6989 22.3783 11.4685 22.327 11.2776 22.2292C11.0022 22.0874 10.8641 21.7689 10.8641 21.2738L10.864 21.192L10.8638 21.0367H8.09525C8.09525 21.9645 8.16111 22.6273 8.29419 23.0253C8.53311 23.7401 9.02679 24.2149 9.77561 24.4492C10.3857 24.6405 11.4663 24.7357 13.0168 24.7357C13.9457 24.7357 14.6363 24.6919 15.0877 24.6042C16.1652 24.3968 16.8577 23.9031 17.166 23.1214C17.3361 22.6953 17.421 22.023 17.421 21.1051C17.421 20.7068 17.4025 20.3484 17.3652 20.0316C17.3015 19.5021 17.1017 19.0733 16.7667 18.7452C16.3411 18.3246 15.655 18.0651 14.7087 17.9668C14.4106 17.934 13.6633 17.8763 12.4667 17.7944L11.9083 17.7537C11.6632 17.7374 11.4667 17.6828 11.3179 17.5898C11.1103 17.4588 11.0067 17.1855 11.0067 16.7703C11.0067 16.3118 11.1237 16.014 11.3574 15.877C11.5912 15.7405 12.0704 15.6723 12.7932 15.6723C13.5375 15.6723 13.9922 15.7908 14.157 16.0276C14.2632 16.1877 14.3166 16.5021 14.3166 16.9706ZM8.10575 26.997L8.52081 26.9538C8.54576 27.0981 8.59647 27.2039 8.6728 27.2717C8.74926 27.3394 8.85229 27.3731 8.98202 27.3731C9.11939 27.3731 9.22282 27.3431 9.29257 27.2831C9.3622 27.2229 9.39694 27.1526 9.39694 27.0721C9.39694 27.0205 9.38232 26.9767 9.35321 26.9403C9.32396 26.904 9.27299 26.8726 9.20014 26.8457C9.15024 26.8281 9.03675 26.7966 8.85954 26.7512C8.63135 26.6931 8.47144 26.6214 8.37941 26.5364C8.25009 26.4168 8.18543 26.271 8.18543 26.099C8.18543 25.9884 8.21588 25.8848 8.27692 25.7885C8.33783 25.6921 8.42583 25.6187 8.54053 25.5683C8.65536 25.518 8.79394 25.4927 8.95626 25.4927C9.22134 25.4927 9.42082 25.5528 9.55484 25.6729C9.68885 25.7931 9.75915 25.9534 9.76586 26.154L9.33832 26.1713C9.32007 26.0593 9.2809 25.9787 9.2208 25.9295C9.16084 25.8804 9.07082 25.8558 8.95076 25.8558C8.8268 25.8558 8.72995 25.8821 8.65979 25.9346C8.61458 25.9682 8.59204 26.0133 8.59204 26.0698C8.59204 26.1214 8.61324 26.1654 8.65549 26.2022C8.70915 26.2486 8.83968 26.2972 9.04708 26.3474C9.25434 26.3978 9.40767 26.4499 9.50708 26.5041C9.60635 26.5582 9.68416 26.6322 9.74037 26.726C9.79644 26.8201 9.82461 26.936 9.82461 27.0741C9.82461 27.1994 9.79094 27.3165 9.7236 27.4258C9.65626 27.5351 9.56114 27.6163 9.43813 27.6694C9.31511 27.7225 9.16178 27.7492 8.97812 27.7492C8.7109 27.7492 8.50565 27.6852 8.36237 27.5571C8.21924 27.429 8.13365 27.2424 8.10575 26.997ZM10.2679 26.1325H10.6745V27.7103H10.2679V26.1325ZM10.2678 25.5315H10.6745V25.9164H10.2678V25.5315ZM12.1656 27.7102H12.5722V26.7277C12.5722 26.6057 12.5647 26.5119 12.5498 26.4465C12.535 26.3809 12.5085 26.3224 12.4706 26.2708C12.4326 26.2192 12.3767 26.1767 12.3027 26.1435C12.2288 26.1103 12.1471 26.0936 12.0578 26.0936C11.8552 26.0936 11.687 26.1838 11.5535 26.3643V26.1324H11.1763V27.7102H11.5829V26.9941C11.5829 26.8173 11.5931 26.6963 11.6137 26.6309C11.6343 26.5653 11.6722 26.5127 11.7278 26.473C11.7833 26.4333 11.846 26.4134 11.9158 26.4134C11.9703 26.4134 12.017 26.4274 12.0558 26.455C12.0945 26.4828 12.1224 26.522 12.1397 26.5721C12.1569 26.6221 12.1656 26.7325 12.1656 26.9032V27.7102ZM13.3946 26.8873C13.3946 27.0553 13.4257 27.1782 13.4882 27.2561C13.5506 27.3343 13.6276 27.3731 13.7192 27.3731C13.8173 27.3731 13.9002 27.3332 13.9679 27.2532C14.0355 27.1733 14.0695 27.0547 14.0695 26.8977C14.0695 26.7339 14.037 26.6122 13.9722 26.5326C13.9073 26.4532 13.8255 26.4134 13.7263 26.4134C13.63 26.4134 13.5506 26.4526 13.4882 26.5304C13.4257 26.6086 13.3946 26.7274 13.3946 26.8873ZM13.0299 27.814L13.491 27.8659C13.4988 27.9247 13.5166 27.9651 13.5445 27.9872C13.5831 28.0187 13.6439 28.0345 13.7268 28.0345C13.8329 28.0345 13.9125 28.0182 13.9656 27.9855C14.0011 27.9637 14.0282 27.9285 14.0466 27.88C14.0591 27.8451 14.0654 27.7814 14.0654 27.6881L14.0666 27.4578C13.9467 27.6261 13.7946 27.7102 13.61 27.7102C13.404 27.7102 13.2412 27.6206 13.121 27.4409C13.0267 27.299 12.9796 27.1222 12.9796 26.9108C12.9796 26.6458 13.0413 26.4434 13.1649 26.3034C13.2884 26.1636 13.4421 26.0936 13.6258 26.0936C13.8152 26.0936 13.9715 26.1795 14.0946 26.351V26.1324H14.472V27.5508C14.472 27.7374 14.4571 27.8768 14.4272 27.9689C14.3974 28.0613 14.3556 28.1337 14.3016 28.1862C14.2477 28.2388 14.1758 28.28 14.0858 28.3098C13.9958 28.3395 13.882 28.3545 13.7445 28.3545C13.4847 28.3545 13.3003 28.3083 13.1915 28.216C13.0828 28.1237 13.0284 28.0067 13.0284 27.8649C13.0284 27.8509 13.029 27.8341 13.0299 27.814ZM15.3655 25.5315H14.9589V27.7103H15.3655V25.5315ZM16.7813 26.7895C16.7784 26.6667 16.748 26.5735 16.6899 26.5094C16.6319 26.4455 16.5614 26.4134 16.4782 26.4134C16.3893 26.4134 16.3158 26.4473 16.2578 26.5147C16.1997 26.582 16.1713 26.6737 16.1722 26.7895H16.7813ZM16.7603 27.2132L17.1628 27.2824C17.1107 27.4344 17.0285 27.5503 16.9162 27.6299C16.8039 27.7096 16.6633 27.7493 16.4947 27.7493C16.2276 27.7493 16.03 27.6592 15.9019 27.4792C15.8006 27.3351 15.7501 27.1532 15.7501 26.9332C15.7501 26.671 15.8165 26.4653 15.9495 26.3166C16.0825 26.1679 16.2506 26.0936 16.4538 26.0936C16.6823 26.0936 16.8624 26.1716 16.9944 26.3275C17.1264 26.4837 17.1895 26.7226 17.1837 27.0446H16.1651C16.1679 27.1688 16.2009 27.2654 16.264 27.3345C16.327 27.4034 16.4056 27.438 16.4998 27.438C16.5638 27.438 16.6177 27.4203 16.6613 27.3848C16.7049 27.3493 16.7381 27.2921 16.7603 27.2132ZM18.5141 25.5315V27.7103H20.1198V27.3428H18.9418V26.7507H19.9982V26.3832H18.9418V25.8991H20.0779V25.5315H18.5141ZM21.5732 27.7102V27.474C21.5173 27.5582 21.4439 27.6252 21.3528 27.6748C21.2617 27.7243 21.1657 27.7492 21.0645 27.7492C20.9613 27.7492 20.869 27.7259 20.7871 27.6792C20.7052 27.6326 20.646 27.5671 20.6093 27.4828C20.5727 27.3984 20.5545 27.2818 20.5545 27.133V26.1324H20.9611V26.8581C20.9611 27.0803 20.9684 27.2164 20.9835 27.2663C20.9984 27.3167 21.0255 27.3562 21.0649 27.3856C21.1043 27.4148 21.1542 27.4293 21.2149 27.4293C21.2841 27.4293 21.3462 27.4099 21.4009 27.3706C21.4558 27.3315 21.4932 27.2829 21.5135 27.2248C21.5336 27.1669 21.5438 27.0248 21.5438 26.7988V26.1324H21.9504V27.7102H21.5732ZM22.4374 27.7102H22.844V27.2224C22.844 26.9537 22.8554 26.7771 22.8781 26.6928C22.9008 26.6086 22.9319 26.5503 22.9714 26.518C23.011 26.4859 23.0592 26.4697 23.1162 26.4697C23.175 26.4697 23.2388 26.4925 23.3072 26.538L23.4309 26.1727C23.3453 26.12 23.2563 26.0936 23.164 26.0936C23.0985 26.0936 23.0401 26.111 22.9886 26.1457C22.9371 26.1806 22.8792 26.2509 22.8146 26.3568V26.1324H22.4374V27.7102ZM24.01 26.9214C24.01 27.0787 24.046 27.1989 24.1184 27.2824C24.1907 27.366 24.2797 27.4077 24.3858 27.4077C24.4918 27.4077 24.5808 27.366 24.6525 27.2824C24.7243 27.1989 24.7603 27.0776 24.7603 26.9185C24.7603 26.7634 24.7243 26.6439 24.6525 26.5605C24.5808 26.4769 24.4918 26.4351 24.3858 26.4351C24.2797 26.4351 24.1907 26.4769 24.1184 26.5605C24.046 26.6439 24.01 26.7644 24.01 26.9214ZM23.5949 26.8989C23.5949 26.7598 23.6281 26.625 23.6945 26.4947C23.7607 26.3646 23.8546 26.2651 23.9763 26.1965C24.0978 26.1279 24.2337 26.0936 24.3837 26.0936C24.6154 26.0936 24.8052 26.1713 24.9533 26.3269C25.1013 26.4826 25.1753 26.6793 25.1753 26.9169C25.1753 27.1565 25.1005 27.3553 24.951 27.5128C24.8016 27.6704 24.6134 27.7493 24.3865 27.7493C24.2462 27.7493 24.1123 27.7163 23.985 27.6509C23.8576 27.5852 23.7607 27.4891 23.6945 27.3622C23.6281 27.2354 23.5949 27.0811 23.5949 26.8989ZM26.9269 26.5216V25.8991H27.1324C27.2859 25.8991 27.3879 25.9041 27.4387 25.914C27.5077 25.927 27.5647 25.9594 27.6097 26.0113C27.6548 26.0632 27.6774 26.129 27.6774 26.2088C27.6774 26.2737 27.6613 26.3306 27.6292 26.3794C27.5971 26.4284 27.5527 26.4643 27.4963 26.4873C27.4396 26.5103 27.3275 26.5216 27.1598 26.5216H26.9269ZM26.4994 25.5315V27.7103H26.9269V26.889H27.2049C27.3977 26.889 27.545 26.8786 27.6468 26.8577C27.7216 26.8408 27.7953 26.8065 27.8677 26.7544C27.9402 26.7024 28 26.6307 28.047 26.5397C28.094 26.4483 28.1175 26.3359 28.1175 26.2022C28.1175 26.0287 28.0767 25.8872 27.995 25.7778C27.9133 25.6682 27.8121 25.597 27.6911 25.5643C27.6123 25.5426 27.4431 25.5315 27.1838 25.5315H26.4994ZM29.395 26.9539C29.3431 26.9719 29.2611 26.9932 29.149 27.0181C29.0368 27.0428 28.9634 27.0673 28.9291 27.0911C28.8763 27.13 28.8501 27.1792 28.8501 27.2388C28.8501 27.2976 28.871 27.3482 28.9131 27.3911C28.9554 27.4339 29.0091 27.4553 29.0744 27.4553C29.1472 27.4553 29.2166 27.4304 29.2829 27.3808C29.3317 27.3429 29.3639 27.2967 29.3792 27.2419C29.3896 27.206 29.395 27.1378 29.395 27.0373V26.9539ZM28.8501 26.6123L28.4854 26.5432C28.5267 26.3903 28.5978 26.2773 28.6987 26.2038C28.7997 26.1304 28.9497 26.0936 29.1486 26.0936C29.3293 26.0936 29.464 26.1157 29.5524 26.1597C29.6408 26.2041 29.7032 26.2601 29.7392 26.328C29.7752 26.396 29.7934 26.5209 29.7934 26.7025L29.7892 27.1908C29.7892 27.3297 29.7956 27.4323 29.8085 27.4982C29.8215 27.5642 29.8458 27.6349 29.8814 27.7102H29.4789C29.4682 27.683 29.4553 27.6425 29.4399 27.5888C29.4332 27.5643 29.4283 27.5483 29.4256 27.5404C29.3564 27.61 29.2825 27.6622 29.2038 27.6971C29.125 27.7318 29.0412 27.7493 28.9518 27.7493C28.7943 27.7493 28.6701 27.705 28.5794 27.6167C28.4887 27.5283 28.4434 27.4166 28.4434 27.2816C28.4434 27.1923 28.4641 27.1127 28.5052 27.0427C28.5467 26.9727 28.6046 26.919 28.6791 26.8818C28.7537 26.8447 28.8611 26.8119 29.0015 26.7841C29.1907 26.7475 29.3219 26.7133 29.3951 26.6815V26.6393C29.3951 26.558 29.3757 26.5 29.3371 26.4653C29.2983 26.4307 29.2255 26.4134 29.1182 26.4134C29.0457 26.4134 28.9893 26.4282 28.9486 26.4575C28.908 26.487 28.8751 26.5386 28.8501 26.6123ZM30.517 26.1324H30.0853L30.6687 27.7147C30.6446 27.8037 30.6098 27.8772 30.5643 27.935C30.5189 27.9926 30.449 28.0215 30.3541 28.0215C30.303 28.0215 30.2453 28.0151 30.1816 28.002L30.2194 28.3291C30.2944 28.346 30.3712 28.3544 30.4491 28.3544C30.5261 28.3544 30.5952 28.346 30.6564 28.329C30.7175 28.3122 30.7688 28.2884 30.8108 28.2582C30.8526 28.228 30.8898 28.1884 30.922 28.1399C30.9542 28.0912 30.9881 28.0208 31.0238 27.9284L31.6616 26.1324H31.2423L30.8839 27.2526L30.517 26.1324ZM31.9786 26.1324H32.3516V26.348C32.4856 26.1784 32.6452 26.0936 32.8303 26.0936C32.9285 26.0936 33.0138 26.1143 33.0861 26.156C33.1584 26.1977 33.2177 26.2608 33.2639 26.3451C33.3312 26.2608 33.404 26.1977 33.4818 26.156C33.5599 26.1143 33.643 26.0936 33.7315 26.0936C33.8442 26.0936 33.9394 26.1171 34.0174 26.1644C34.0953 26.2113 34.1537 26.2806 34.1922 26.372C34.2199 26.4394 34.2339 26.5485 34.2339 26.6995V27.7102H33.8273V26.8065C33.8273 26.6497 33.8133 26.5485 33.7856 26.5029C33.748 26.4431 33.6905 26.4134 33.6128 26.4134C33.556 26.4134 33.5026 26.4312 33.4527 26.4671C33.4028 26.5029 33.3669 26.5552 33.3449 26.6242C33.3227 26.6931 33.3116 26.8021 33.3116 26.951V27.7102H32.905V26.8439C32.905 26.6898 32.8979 26.5907 32.8834 26.5459C32.869 26.5012 32.8468 26.468 32.8165 26.4462C32.7861 26.4245 32.7452 26.4134 32.6933 26.4134C32.6309 26.4134 32.5747 26.4308 32.5248 26.4655C32.4749 26.5003 32.4392 26.5505 32.4175 26.6159C32.3959 26.6815 32.3852 26.7901 32.3852 26.942V27.7102H31.9786V26.1324ZM35.5431 26.5094C35.6013 26.5735 35.6317 26.6667 35.6346 26.7895H35.0256C35.0246 26.6737 35.0531 26.582 35.1112 26.5147C35.169 26.4473 35.2426 26.4134 35.3314 26.4134C35.4146 26.4134 35.4853 26.4455 35.5431 26.5094ZM36.0161 27.2824L35.6137 27.2132C35.5914 27.2921 35.5584 27.3493 35.5145 27.3848C35.4709 27.4203 35.4171 27.438 35.3532 27.438C35.2589 27.438 35.1802 27.4034 35.1173 27.3345C35.0543 27.2654 35.0213 27.1688 35.0183 27.0446H36.0371C36.0428 26.7226 35.9796 26.4837 35.8476 26.3275C35.7156 26.1716 35.5356 26.0936 35.3071 26.0936C35.1038 26.0936 34.9358 26.1679 34.8027 26.3166C34.6699 26.4653 34.6033 26.671 34.6033 26.9332C34.6033 27.1532 34.6538 27.3351 34.7551 27.4792C34.8834 27.6592 35.081 27.7493 35.3479 27.7493C35.5167 27.7493 35.6571 27.7096 35.7696 27.6299C35.8818 27.5503 35.9639 27.4344 36.0161 27.2824ZM37.8466 27.7102H37.44V26.9032C37.44 26.7325 37.4313 26.6221 37.4142 26.5721C37.3969 26.522 37.3689 26.4828 37.3301 26.455C37.2914 26.4274 37.2447 26.4134 37.1902 26.4134C37.1205 26.4134 37.0577 26.4333 37.0023 26.473C36.9467 26.5127 36.9088 26.5653 36.8881 26.6309C36.8676 26.6963 36.8572 26.8173 36.8572 26.9941V27.7102H36.4506V26.1324H36.8279V26.3643C36.9615 26.1838 37.1296 26.0936 37.3321 26.0936C37.4215 26.0936 37.5033 26.1103 37.5771 26.1435C37.651 26.1767 37.7071 26.2192 37.7451 26.2708C37.783 26.3224 37.8093 26.3809 37.8242 26.4465C37.8392 26.5119 37.8466 26.6057 37.8466 26.7277V27.7102ZM39.0464 26.4653V26.1324H38.7696V25.5705L38.363 25.8169V26.1324H38.1786V26.4653H38.363V27.155C38.363 27.3029 38.3672 27.4012 38.3759 27.4499C38.3864 27.5184 38.4051 27.5727 38.4324 27.6129C38.4597 27.6531 38.5025 27.686 38.5608 27.7112C38.6191 27.7365 38.6844 27.7493 38.7573 27.7493C38.8757 27.7493 38.9819 27.7284 39.0756 27.6867L39.0401 27.3633C38.97 27.39 38.9169 27.4034 38.8799 27.4034C38.8535 27.4034 38.8312 27.3964 38.8127 27.3825C38.7943 27.3686 38.7825 27.351 38.7774 27.3296C38.7722 27.3083 38.7696 27.2329 38.7696 27.1037V26.4653H39.0464ZM39.275 27.2651L39.6816 27.2002C39.6989 27.2809 39.7339 27.342 39.7867 27.3839C39.8395 27.4258 39.9133 27.4466 40.0083 27.4466C40.113 27.4466 40.1918 27.4267 40.2445 27.3868C40.2801 27.3587 40.2979 27.3215 40.2979 27.2745C40.2979 27.2427 40.2881 27.2161 40.2688 27.1954C40.2484 27.1753 40.2031 27.1569 40.1325 27.1399C39.804 27.0651 39.5956 26.9969 39.5079 26.9353C39.3861 26.85 39.3253 26.7311 39.3253 26.5794C39.3253 26.4422 39.3778 26.3269 39.4831 26.2337C39.5885 26.1403 39.7518 26.0936 39.973 26.0936C40.1836 26.0936 40.34 26.1286 40.4425 26.1984C40.5449 26.2684 40.6154 26.3718 40.6542 26.5086L40.2727 26.582C40.2562 26.5207 40.2248 26.4736 40.1786 26.4409C40.1324 26.4081 40.0665 26.3918 39.981 26.3918C39.8732 26.3918 39.7958 26.4072 39.7492 26.4383C39.718 26.4602 39.7025 26.4885 39.7025 26.5234C39.7025 26.5534 39.716 26.5788 39.7431 26.5999C39.7797 26.6277 39.9065 26.6671 40.1231 26.718C40.3398 26.7689 40.4911 26.8312 40.5771 26.9049C40.6619 26.9796 40.7045 27.0837 40.7045 27.2172C40.7045 27.3626 40.6458 27.4877 40.5286 27.5922C40.4113 27.697 40.2379 27.7493 40.0083 27.7493C39.7999 27.7493 39.6349 27.7057 39.5134 27.6189C39.3918 27.5319 39.3124 27.4142 39.275 27.2651ZM42.8839 26.0417L43.1793 26.8501H42.5984L42.8839 26.0417ZM43.503 27.7103H43.9634L43.1102 25.5315H42.6606L41.8421 27.7103H42.2946L42.4687 27.2175H43.3203L43.503 27.7103ZM44.6613 27.7102H44.2547V26.1324H44.6319V26.3568C44.6964 26.2509 44.7543 26.1806 44.8059 26.1457C44.8573 26.111 44.9156 26.0936 44.9812 26.0936C45.0735 26.0936 45.1625 26.12 45.2482 26.1727L45.1245 26.538C45.056 26.4925 44.9922 26.4697 44.9335 26.4697C44.8763 26.4697 44.8282 26.4859 44.7886 26.518C44.749 26.5503 44.7179 26.6086 44.6954 26.6928C44.6726 26.7771 44.6613 26.9537 44.6613 27.2224V27.7102ZM46.3311 26.5094C46.3891 26.5735 46.4195 26.6667 46.4225 26.7895H45.8135C45.8124 26.6737 45.841 26.582 45.899 26.5147C45.957 26.4473 46.0304 26.4134 46.1195 26.4134C46.2025 26.4134 46.2731 26.4455 46.3311 26.5094ZM46.804 27.2824L46.4015 27.2132C46.3791 27.2921 46.3461 27.3493 46.3025 27.3848C46.2588 27.4203 46.205 27.438 46.1409 27.438C46.0468 27.438 45.9682 27.4034 45.905 27.3345C45.8421 27.2654 45.8091 27.1688 45.8062 27.0446H46.8249C46.8307 26.7226 46.7675 26.4837 46.6356 26.3275C46.5035 26.1716 46.3233 26.0936 46.095 26.0936C45.8918 26.0936 45.7235 26.1679 45.5907 26.3166C45.4577 26.4653 45.3911 26.671 45.3911 26.9332C45.3911 27.1532 45.4417 27.3351 45.543 27.4792C45.6711 27.6592 45.8688 27.7493 46.1359 27.7493C46.3045 27.7493 46.4451 27.7096 46.5574 27.6299C46.6697 27.5503 46.7519 27.4344 46.804 27.2824ZM48.0853 26.9539C48.0336 26.9719 47.9515 26.9932 47.8393 27.0181C47.7272 27.0428 47.6539 27.0673 47.6194 27.0911C47.5666 27.13 47.5404 27.1792 47.5404 27.2388C47.5404 27.2976 47.5614 27.3482 47.6036 27.3911C47.6457 27.4339 47.6994 27.4553 47.7647 27.4553C47.8376 27.4553 47.9069 27.4304 47.9732 27.3808C48.022 27.3429 48.0542 27.2967 48.0695 27.2419C48.08 27.206 48.0853 27.1378 48.0853 27.0373V26.9539ZM47.5404 26.6123L47.1756 26.5432C47.2169 26.3903 47.288 26.2773 47.3889 26.2038C47.4899 26.1304 47.6399 26.0936 47.8389 26.0936C48.0196 26.0936 48.1542 26.1157 48.2426 26.1597C48.3311 26.2041 48.3934 26.2601 48.4294 26.328C48.4655 26.396 48.4836 26.5209 48.4836 26.7025L48.4794 27.1908C48.4794 27.3297 48.4859 27.4323 48.4987 27.4982C48.5117 27.5642 48.536 27.6349 48.5714 27.7102H48.1691C48.1584 27.683 48.1457 27.6425 48.1301 27.5888C48.1235 27.5643 48.1186 27.5483 48.1159 27.5404C48.0467 27.61 47.9729 27.6622 47.8941 27.6971C47.8154 27.7318 47.7314 27.7493 47.6421 27.7493C47.4846 27.7493 47.3603 27.705 47.2697 27.6167C47.1791 27.5283 47.1338 27.4166 47.1338 27.2816C47.1338 27.1923 47.1543 27.1127 47.1956 27.0427C47.2369 26.9727 47.2949 26.919 47.3693 26.8818C47.4439 26.8447 47.5514 26.8119 47.6917 26.7841C47.881 26.7475 48.0122 26.7133 48.0853 26.6815V26.6393C48.0853 26.558 48.066 26.5 48.0273 26.4653C47.9887 26.4307 47.9157 26.4134 47.8084 26.4134C47.736 26.4134 47.6795 26.4282 47.6388 26.4575C47.5983 26.487 47.5653 26.5386 47.5404 26.6123ZM42.9911 15.601L44.3855 20.5437H41.638L42.9911 15.601ZM40.9977 22.7651H44.9767L45.5444 24.7357H48.5588L45.1956 13.3334H40.7064L37.384 24.7357H40.4631L40.9977 22.7651Z" fill="#10298E"/>
<path fill-rule="evenodd" clip-rule="evenodd" d="M25.1526 14.9376C26.3801 14.9376 27.4755 15.5207 28.1957 16.4339L28.8372 15.0156C27.8339 14.0378 26.4683 13.4349 24.9622 13.4349C22.6173 13.4349 20.6113 14.8953 19.7881 16.9625H18.5371L17.7985 18.5954H19.4077C19.3957 18.7468 19.3879 18.8985 19.3879 19.0531C19.3879 19.2403 19.3973 19.4252 19.4153 19.608H18.6065L17.868 21.2414H19.8264C20.6732 23.2563 22.6541 24.6709 24.9622 24.6709C26.1255 24.6709 27.2048 24.3115 28.0985 23.6976V21.6958C27.3788 22.5407 26.3261 23.0747 25.1526 23.0747C23.7808 23.0747 22.5741 22.3452 21.8714 21.2414H25.9725L26.711 19.608H21.268C21.24 19.4114 21.2249 19.2105 21.2249 19.0059C21.2249 18.8676 21.2319 18.7307 21.2448 18.5954H27.1687L27.9072 16.9625H21.7571C22.4373 15.7521 23.703 14.9376 25.1526 14.9376Z" fill="#FFBE00"/>
<rect x="0.5" y="0.5" width="57" height="39" rx="5.5" stroke="#F2F4F7"/>
</svg>
