<svg width="58" height="40" viewBox="0 0 58 40" fill="none" xmlns="http://www.w3.org/2000/svg">
<rect x="0.5" y="0.5" width="57" height="39" rx="5.5" fill="#5A31F4"/>
<path d="M32.1167 18.2897C32.1167 20.7832 30.3685 22.5632 27.9256 22.5632H25.6241C25.5986 22.5632 25.5735 22.5682 25.55 22.5779C25.5266 22.5877 25.5053 22.602 25.4873 22.62C25.4694 22.638 25.4552 22.6594 25.4456 22.6829C25.4359 22.7064 25.431 22.7316 25.4312 22.757V26.0342C25.4312 26.0854 25.4109 26.1346 25.3747 26.1709C25.3386 26.2073 25.2895 26.2278 25.2383 26.228H23.6278C23.5895 26.2278 23.5521 26.2164 23.5203 26.1951C23.4885 26.1737 23.4636 26.1435 23.4489 26.1082C23.4392 26.085 23.4341 26.0602 23.4339 26.0351V14.2091C23.4338 14.1837 23.4387 14.1585 23.4484 14.135C23.458 14.1114 23.4722 14.0901 23.4901 14.0721C23.508 14.0541 23.5293 14.0398 23.5528 14.03C23.5763 14.0203 23.6014 14.0152 23.6268 14.0152H27.9359C30.3685 14.0124 32.1167 15.7924 32.1167 18.2897ZM30.1082 18.2897C30.1082 16.8561 29.1307 15.8083 27.8048 15.8083H25.6241C25.5986 15.8083 25.5735 15.8134 25.55 15.8231C25.5266 15.8329 25.5053 15.8472 25.4873 15.8652C25.4694 15.8832 25.4552 15.9046 25.4456 15.9281C25.4359 15.9516 25.431 15.9768 25.4312 16.0022V20.5659C25.4312 20.6171 25.4515 20.6661 25.4877 20.7023C25.5238 20.7385 25.5729 20.7588 25.6241 20.7588H27.8048C29.1307 20.7682 30.1082 19.7195 30.1082 18.2897ZM32.5942 23.9593C32.5775 23.5768 32.6566 23.1963 32.8244 22.8522C32.9922 22.5082 33.2433 22.2115 33.5549 21.9892C34.1832 21.5163 35.1654 21.2719 36.6074 21.2214L38.143 21.1671V20.7139C38.143 19.8056 37.5344 19.4217 36.5569 19.4217C35.5793 19.4217 34.9594 19.7682 34.8171 20.3347C34.8055 20.3745 34.781 20.4093 34.7475 20.4338C34.7139 20.4582 34.6732 20.4707 34.6317 20.4695H33.1148C33.0869 20.4703 33.0592 20.4648 33.0336 20.4537C33.0079 20.4425 32.9851 20.4258 32.9667 20.4048C32.9483 20.3838 32.9347 20.359 32.927 20.3321C32.9193 20.3053 32.9175 20.277 32.922 20.2494C33.1467 18.9067 34.2637 17.8861 36.6261 17.8861C39.1393 17.8861 40.0466 19.0565 40.0466 21.2907V26.0342C40.0461 26.0859 40.0252 26.1354 39.9883 26.1717C39.9515 26.208 39.9017 26.2283 39.85 26.228H38.3209C38.2698 26.2279 38.2207 26.2077 38.1842 26.1718C38.1663 26.1539 38.1522 26.1325 38.1425 26.1091C38.1329 26.0856 38.128 26.0605 38.128 26.0351V25.6803C38.1286 25.6509 38.1203 25.6221 38.1041 25.5976C38.088 25.5732 38.0648 25.5541 38.0376 25.5431C38.0105 25.532 37.9806 25.5295 37.9519 25.5357C37.9233 25.542 37.8972 25.5568 37.8771 25.5782C37.4183 26.0773 36.6776 26.4378 35.4913 26.4378C33.7459 26.4378 32.5942 25.5295 32.5942 23.9593ZM38.143 22.9311V22.5632L36.1542 22.668C35.1065 22.7214 34.4969 23.1568 34.4969 23.89C34.4969 24.5529 35.0559 24.9199 36.0325 24.9199C37.3593 24.9199 38.143 24.2036 38.143 22.9311ZM41.5822 29.8124V28.4378C41.5825 28.409 41.5892 28.3806 41.6017 28.3546C41.6142 28.3286 41.6322 28.3057 41.6545 28.2875C41.6769 28.2693 41.7029 28.2562 41.7309 28.2491C41.7589 28.2421 41.788 28.2413 41.8163 28.2468C42.0504 28.2908 42.2892 28.3133 42.528 28.3142C42.9384 28.3342 43.3438 28.2159 43.679 27.9782C44.0143 27.7405 44.2602 27.3973 44.3772 27.0033L44.4765 26.6868C44.4909 26.6443 44.4909 26.5983 44.4765 26.5558L41.2901 18.3721C41.2786 18.3424 41.2744 18.3104 41.278 18.2788C41.2816 18.2471 41.2928 18.2169 41.3107 18.1905C41.3285 18.1642 41.3525 18.1426 41.3806 18.1275C41.4086 18.1125 41.4399 18.1045 41.4717 18.1043H43.0167C43.0562 18.1047 43.0946 18.1169 43.127 18.1395C43.1594 18.162 43.1843 18.1938 43.1984 18.2307L45.3623 24.0023C45.3758 24.0407 45.4009 24.0739 45.4341 24.0974C45.4673 24.1208 45.507 24.1334 45.5477 24.1334C45.5883 24.1334 45.628 24.1208 45.6612 24.0974C45.6944 24.0739 45.7195 24.0407 45.7331 24.0023L47.6123 18.2466C47.6253 18.2073 47.6505 18.173 47.6841 18.1488C47.7177 18.1246 47.7581 18.1116 47.7996 18.1118H49.3979C49.43 18.112 49.4615 18.1199 49.4897 18.1349C49.518 18.1499 49.5423 18.1715 49.5604 18.1979C49.5785 18.2243 49.59 18.2547 49.5938 18.2865C49.5976 18.3183 49.5937 18.3505 49.5824 18.3805L46.1741 27.4687C45.3894 29.5811 44.0439 30.1214 42.5626 30.1214C42.2817 30.1289 42.0008 30.0951 41.7292 30.0212C41.6841 30.0092 41.6446 29.9817 41.6177 29.9436C41.5908 29.9054 41.5783 29.8589 41.5822 29.8124ZM13.0845 13.3336C11.0546 13.3191 9.09627 14.0831 7.61246 15.4684C7.54901 15.5266 7.50945 15.6062 7.50149 15.6919C7.49353 15.7776 7.51773 15.8631 7.56939 15.9319L8.48795 17.1866C8.51772 17.2284 8.5563 17.2632 8.60094 17.2884C8.64559 17.3137 8.69524 17.3289 8.74638 17.3329C8.79752 17.3369 8.84893 17.3297 8.89697 17.3117C8.94502 17.2937 8.98854 17.2654 9.02447 17.2288C9.55801 16.6954 10.1925 16.2737 10.8909 15.9883C11.5893 15.7029 12.3376 15.5596 13.092 15.5668C16.2418 15.5668 17.887 17.9376 17.887 20.2785C17.887 22.8235 16.1585 24.6138 13.6744 24.6493C11.7549 24.6493 10.3082 23.3768 10.3082 21.6961C10.3102 21.2715 10.4064 20.8526 10.5899 20.4697C10.7733 20.0867 11.0395 19.7493 11.3691 19.4816C11.4388 19.4234 11.4828 19.3402 11.4918 19.2498C11.5007 19.1595 11.4738 19.0692 11.4168 18.9985L10.4515 17.7794C10.4223 17.7425 10.386 17.7118 10.3448 17.6892C10.3035 17.6666 10.2582 17.6525 10.2114 17.6477C10.1646 17.6429 10.1173 17.6475 10.0724 17.6613C10.0274 17.675 9.98566 17.6977 9.94959 17.7279C9.3567 18.2055 8.87826 18.8099 8.54936 19.4965C8.22045 20.1832 8.04941 20.9347 8.0488 21.6961C8.0488 24.5894 10.5076 26.8591 13.6575 26.8779H13.6997C17.4394 26.8292 20.1436 24.0594 20.1436 20.2738C20.1436 16.9123 17.6679 13.3336 13.0854 13.3336H13.0845Z" fill="white"/>
<rect x="0.5" y="0.5" width="57" height="39" rx="5.5" stroke="#F2F4F7"/>
</svg>
