<svg width="58" height="40" viewBox="0 0 58 40" fill="none" xmlns="http://www.w3.org/2000/svg">
<rect x="0.5" y="0.5" width="57" height="39" rx="5.5" fill="#F884A1"/>
<path fill-rule="evenodd" clip-rule="evenodd" d="M32.9735 15.726L34.5399 7.69691C34.7283 6.79615 34.21 5.88847 33.3418 5.62517C32.3725 5.37573 31.3965 5.95776 31.1475 6.94166L29.7282 11.9438L28.6094 7.01788C28.5219 6.56057 28.2527 6.15177 27.869 5.88847C27.4853 5.62517 27.0074 5.5351 26.5565 5.6321C25.668 5.82611 25.0891 6.89316 25.3113 7.8632L25.9714 13.443C25.3979 12.8545 24.7282 12.6732 23.952 13.1361L23.8511 13.2054C23.1438 13.7012 22.9999 14.7145 23.4544 15.6374C23.0782 15.6591 22.7104 15.8206 22.4308 16.1155L22.3635 16.1917C21.7106 16.8846 21.8384 18.0556 22.6529 18.894L23.3145 19.5728C23.3889 22.7106 25.8684 24.9082 28.7918 24.9082C28.8263 24.9082 28.8597 24.9034 28.8913 24.8942C32.8513 24.8535 34.5916 22.4256 34.8898 18.7415C34.9841 17.5775 34.7754 16.7807 34.3379 16.3026C34.0956 16.0393 33.8398 15.9146 33.6446 15.8868L32.9735 15.726ZM32.2647 15.5562L33.8264 7.54447C33.9341 7.01788 33.6312 6.49821 33.1466 6.34577C32.5812 6.20027 32.0023 6.55364 31.8475 7.1426L30.0369 13.531C29.983 13.732 29.7811 13.8428 29.5859 13.7874C29.4309 13.7434 29.3311 13.6033 29.3235 13.4468L27.8959 7.17031C27.8421 6.90009 27.6873 6.6645 27.4652 6.51207C27.243 6.35963 26.9671 6.31113 26.7046 6.36656C26.2334 6.4705 25.8834 7.12181 26.0247 7.70384L26.0315 7.74541L26.8473 14.6688L27.3605 15.4572C27.5846 15.1369 27.9077 14.9374 28.2935 14.8475C28.6166 14.7782 28.9464 14.7852 29.2628 14.8406C29.3417 14.8522 29.4017 14.8686 29.435 14.8778C29.4414 14.8795 29.4469 14.881 29.4513 14.8822L32.2647 15.5562ZM27.0379 16.3079L26.2344 15.0736C26.207 15.0437 26.1844 15.0093 26.1679 14.9715L25.7896 14.3902C25.3252 13.6904 24.8742 13.4479 24.3357 13.7666L24.2617 13.8221C23.8444 14.12 23.7905 14.8267 24.2213 15.5058L25.8098 17.9378C26.0925 18.3674 26.6579 18.4783 27.0752 18.1873L27.156 18.1387C27.2676 18.0636 27.36 17.9603 27.4263 17.8414C27.0273 17.4209 26.9286 16.9009 27.0379 16.3079ZM28.1611 17.5194C28.1195 17.4542 28.0575 17.402 27.9812 17.373C27.6777 17.0724 27.6657 16.6971 27.8089 16.2056C27.9166 15.8453 28.1253 15.6582 28.4551 15.582C28.6705 15.5335 28.906 15.5404 29.1349 15.582C29.1606 15.5873 29.1834 15.5916 29.2028 15.5952C29.2343 15.6011 29.257 15.6054 29.2695 15.6097L33.51 16.6282L33.5908 16.656C33.6581 16.6837 33.7321 16.7391 33.8062 16.8153C34.0889 17.1271 34.2504 17.7161 34.1696 18.6861C33.8937 22.0813 32.359 24.1877 28.7109 24.153C28.6904 24.153 28.6703 24.1547 28.6508 24.158C26.4396 24.0973 24.5693 22.6111 24.1348 20.4145L24.6789 20.9727C25.3318 21.617 26.3616 21.6032 26.9943 20.938L27.0684 20.8618C27.5705 20.3224 27.6566 19.5279 27.3303 18.8994C27.3785 18.8726 27.4259 18.8431 27.4723 18.8109L27.5531 18.7554C27.736 18.6272 27.8897 18.4619 28.0076 18.2716C28.2533 18.4035 28.5488 18.519 28.8993 18.6168L29.9157 18.8593C29.1618 19.2959 28.6907 20.1065 28.6368 21.3468C28.6234 21.5547 28.7782 21.7279 28.9801 21.7418C29.182 21.7487 29.3503 21.5962 29.3638 21.3884C29.4176 20.2659 29.8416 19.6631 30.5215 19.3998C30.8849 19.2612 31.2821 19.2335 31.6321 19.2681L31.7196 19.282C32.184 19.3721 32.3321 18.6584 31.8677 18.5475L29.0743 17.9032C28.6712 17.7898 28.3732 17.6638 28.1611 17.5194ZM22.9558 16.6421C23.2351 16.3412 23.6901 16.3049 24.018 16.5395L25.204 18.3605C25.5293 18.8496 26.0561 19.1089 26.5887 19.0992C26.8792 19.4621 26.8637 19.999 26.5366 20.3421L26.4693 20.4184C26.1193 20.7856 25.5472 20.7925 25.1904 20.4322L23.1712 18.3743C22.6125 17.7992 22.5385 17.0925 22.8885 16.7183L22.9558 16.6421ZM20.2634 31.9411C20.2634 33.0982 19.3884 33.8881 18.2441 33.8881C17.4432 33.8881 16.7566 33.5139 16.3326 32.918L17.1201 32.1074C17.3556 32.4192 17.746 32.7587 18.2576 32.7587C18.7355 32.7587 19.0653 32.4677 19.0653 31.9965C19.0653 31.4976 18.6749 31.3729 18.0624 31.1928C16.9383 30.8532 16.4806 30.2504 16.4806 29.4675C16.4806 28.4836 17.2076 27.6382 18.3518 27.6382C19.072 27.6382 19.7384 27.9847 20.0346 28.6568L19.0855 29.2735C18.9038 28.9686 18.6547 28.7676 18.3182 28.7676C17.921 28.7676 17.672 29.0448 17.672 29.3982C17.672 29.8208 18.0355 29.9525 18.6143 30.1257C19.523 30.4029 20.2634 30.8671 20.2634 31.9411ZM20.6738 31.6778C20.6738 32.8903 21.6565 33.8881 22.8681 33.8881C24.0796 33.8881 25.0623 32.8903 25.0623 31.6778C25.0623 30.4652 24.0796 29.4675 22.8681 29.4675C21.6565 29.4675 20.6738 30.4652 20.6738 31.6778ZM22.8678 32.7795C23.4534 32.7795 23.9178 32.3014 23.9178 31.6778C23.9178 31.0542 23.4534 30.5761 22.8678 30.5761C22.2755 30.5761 21.8178 31.0542 21.8178 31.6778C21.8178 32.3083 22.2822 32.7795 22.8678 32.7795ZM27.896 27.7145V28.8231C27.2566 28.7954 26.7921 29.128 26.7921 29.8624V30.3128C27.0479 30.0357 27.4114 29.8971 27.8624 29.8971V31.0196C27.2297 31.0334 26.7921 31.4492 26.7921 32.0312V33.7773H25.6479V29.7931C25.6479 28.6707 26.3344 27.7145 27.7277 27.7145H27.896ZM30.3932 33.8881C29.1816 33.8881 28.1989 32.8903 28.1989 31.6778C28.1989 30.4652 29.1816 29.4675 30.3932 29.4675C31.6048 29.4675 32.5875 30.4652 32.5875 31.6778C32.5875 32.8903 31.6048 33.8881 30.3932 33.8881ZM31.4432 31.6778C31.4432 32.3014 30.9855 32.7795 30.3931 32.7795C29.8075 32.7795 29.3431 32.3083 29.3431 31.6778C29.3431 31.0542 29.8075 30.5761 30.3931 30.5761C30.9787 30.5761 31.4432 31.0542 31.4432 31.6778ZM34.3173 30.0634V29.5853H33.2067V33.7772H34.351V31.8649C34.351 31.172 34.7481 30.784 35.4346 30.784V29.5229C34.9163 29.5021 34.5461 29.6823 34.3173 30.0634ZM37.2386 30.6108V31.6362C37.2386 32.3707 37.703 32.6964 38.3425 32.6756V33.7842H38.1742C36.7742 33.7842 36.0943 32.828 36.0943 31.7055V28.2411H37.2386V28.8993C37.2386 29.4675 37.6896 29.8971 38.3088 29.9109V31.0265C37.8511 31.0265 37.4944 30.8879 37.2386 30.6108ZM39.7088 33.8466C40.1262 33.8466 40.4762 33.4932 40.4762 33.0567C40.4762 32.6271 40.1329 32.2668 39.7088 32.2668C39.2848 32.2668 38.9415 32.6201 38.9415 33.0567C38.9415 33.4932 39.2848 33.8466 39.7088 33.8466Z" fill="white"/>
<rect x="0.5" y="0.5" width="57" height="39" rx="5.5" stroke="#F2F4F7"/>
</svg>
