<svg width="58" height="40" viewBox="0 0 58 40" fill="none" xmlns="http://www.w3.org/2000/svg">
<rect x="0.5" y="0.5" width="57" height="39" rx="5.5" fill="white"/>
<path d="M17.5306 8.33411H26.4609C27.7075 8.33411 28.4829 9.38007 28.1921 10.6676L24.0344 29.0432C23.7409 30.3262 22.4928 31.3731 21.2454 31.3731H12.3159C11.0711 31.3731 10.294 30.3262 10.5848 29.0432L14.7442 10.6676C15.035 9.38007 16.2825 8.33411 17.5306 8.33411Z" fill="#E21836"/>
<path d="M25.7173 8.33337H35.9869C37.2333 8.33337 36.6713 9.37934 36.3781 10.6668L32.2211 29.0425C31.9294 30.3255 32.0204 31.3724 30.7714 31.3724H20.5018C19.2528 31.3724 18.4798 30.3255 18.7732 29.0425L22.9301 10.6668C23.2252 9.37934 24.4701 8.33337 25.7173 8.33337Z" fill="#00447C"/>
<path d="M35.5798 8.33337H44.5101C45.7584 8.33337 46.5338 9.37934 46.2406 10.6668L42.0835 29.0425C41.7901 30.3255 40.5411 31.3724 39.293 31.3724H30.3668C29.1178 31.3724 28.3432 30.3255 28.6357 29.0425L32.7934 10.6668C33.0842 9.37934 34.3308 8.33337 35.5798 8.33337Z" fill="#007B84"/>
<path d="M19.8625 14.2221C18.9441 14.2318 18.6729 14.2221 18.5863 14.2011C18.553 14.364 17.9333 17.3067 17.9315 17.3092C17.7981 17.9045 17.701 18.3289 17.3712 18.603C17.184 18.7623 16.9655 18.8391 16.7121 18.8391C16.3049 18.8391 16.0676 18.631 16.0278 18.2361L16.0202 18.1006C16.0202 18.1006 16.1442 17.3031 16.1442 17.2986C16.1442 17.2986 16.7946 14.617 16.9111 14.2625C16.9172 14.2423 16.9189 14.2318 16.9205 14.2221C15.6545 14.2336 15.4301 14.2221 15.4146 14.2011C15.4061 14.23 15.3748 14.3962 15.3748 14.3962L14.7107 17.4187L14.6536 17.6751L14.5433 18.5136C14.5433 18.7623 14.5907 18.9653 14.6852 19.1369C14.9878 19.6812 15.8508 19.7627 16.3391 19.7627C16.9681 19.7627 17.5582 19.6252 17.957 19.374C18.6492 18.953 18.8303 18.2949 18.9918 17.71L19.0667 17.41C19.0667 17.41 19.7367 14.6248 19.8505 14.2625C19.8548 14.2423 19.8566 14.2318 19.8625 14.2221ZM22.142 16.469C21.9805 16.469 21.6854 16.5093 21.4203 16.6431C21.324 16.694 21.2331 16.7527 21.1371 16.8111L21.2237 16.4892L21.1762 16.4349C20.614 16.5521 20.4882 16.5678 19.9688 16.6431L19.9253 16.6729C19.865 17.1876 19.8115 17.5746 19.5879 18.5862C19.5028 18.9591 19.4144 19.3355 19.3258 19.7075L19.3498 19.7548C19.882 19.7259 20.0435 19.7259 20.506 19.7337L20.5435 19.6918C20.6023 19.3819 20.6099 19.3093 20.74 18.6817C20.8012 18.3841 20.9288 17.7303 20.9917 17.4975C21.1072 17.4424 21.2213 17.3881 21.3301 17.3881C21.5894 17.3881 21.5578 17.6209 21.5478 17.7137C21.5367 17.8694 21.4422 18.3781 21.3454 18.8148L21.2807 19.0967C21.2357 19.3048 21.1863 19.5072 21.1412 19.7135L21.1608 19.7548C21.6854 19.7259 21.8454 19.7259 22.2933 19.7337L22.346 19.6918C22.427 19.2078 22.4507 19.0783 22.5944 18.3736L22.6666 18.0498C22.807 17.4161 22.8775 17.0948 22.7713 16.8331C22.659 16.5398 22.3895 16.469 22.142 16.469ZM24.6886 17.1324C24.4098 17.1876 24.2319 17.2243 24.0552 17.2481C23.88 17.277 23.7091 17.3032 23.4396 17.3417L23.4183 17.3617L23.3987 17.3776C23.3706 17.5842 23.351 17.7628 23.3138 17.9727C23.2822 18.1898 23.2337 18.4365 23.1547 18.791C23.0935 19.0624 23.062 19.1569 23.0271 19.2524C22.9932 19.3478 22.9557 19.4406 22.887 19.7075L22.9031 19.7321L22.9166 19.7547C23.1684 19.7424 23.3332 19.7337 23.5025 19.7321C23.6716 19.7258 23.8469 19.7321 24.1181 19.7337L24.1418 19.7137L24.1673 19.6918C24.2065 19.4511 24.2123 19.3864 24.2363 19.269C24.26 19.143 24.3009 18.9687 24.4013 18.5031C24.4487 18.2844 24.5016 18.0664 24.5508 17.8432C24.602 17.6209 24.6555 17.402 24.7064 17.1833L24.6988 17.1569L24.6886 17.1324ZM24.6945 16.2379C24.4412 16.084 23.9965 16.1328 23.6972 16.3455C23.3988 16.5538 23.3648 16.8496 23.6173 17.0056C23.8663 17.1553 24.3127 17.1107 24.6094 16.8962C24.9072 16.6834 24.9444 16.3903 24.6945 16.2379ZM26.2268 19.803C26.7394 19.803 27.2649 19.6576 27.6604 19.226C27.9647 18.876 28.1042 18.3553 28.1525 18.1408C28.3099 17.4301 28.1874 17.0982 28.0335 16.8961C27.7997 16.588 27.3866 16.4892 26.958 16.4892C26.7003 16.4892 26.0864 16.5154 25.6069 16.9705C25.2625 17.2988 25.1034 17.7442 25.0074 18.1713C24.9106 18.6064 24.7991 19.3898 25.4989 19.6813C25.7149 19.7768 26.0261 19.803 26.2268 19.803ZM26.1868 18.2038C26.305 17.6656 26.4445 17.2138 26.8006 17.2138C27.0796 17.2138 27.0999 17.55 26.9758 18.09C26.9536 18.2098 26.8517 18.6555 26.714 18.8453C26.6178 18.9854 26.5039 19.0703 26.3781 19.0703C26.3407 19.0703 26.118 19.0703 26.1145 18.7299C26.1128 18.5619 26.1461 18.3902 26.1868 18.2038ZM29.434 19.7338L29.474 19.6919C29.5308 19.382 29.5402 19.3092 29.666 18.6818C29.7289 18.3842 29.8591 17.7304 29.9202 17.4975C30.036 17.4422 30.1481 17.388 30.2604 17.388C30.5179 17.388 30.4866 17.6208 30.4764 17.7135C30.467 17.8695 30.3725 18.3779 30.2739 18.8146L30.2128 19.0965C30.166 19.3049 30.115 19.507 30.07 19.7136L30.0896 19.7548C30.6159 19.7259 30.7698 19.7259 31.2204 19.7338L31.2748 19.6919C31.3538 19.2077 31.3751 19.0781 31.5231 18.3737L31.5937 18.0497C31.7347 17.416 31.8061 17.0949 31.7016 16.8332C31.586 16.5399 31.3148 16.4691 31.0708 16.4691C30.9091 16.4691 30.6124 16.5092 30.3488 16.6432C30.2546 16.694 30.1601 16.7525 30.0674 16.8112L30.1481 16.4892L30.1048 16.4348C29.5428 16.5522 29.4144 16.5679 28.8957 16.6432L28.8558 16.673C28.7929 17.1877 28.7418 17.5744 28.5182 18.5863C28.4331 18.9592 28.3447 19.3356 28.2564 19.7076L28.2801 19.7548C28.8132 19.7259 28.9723 19.7259 29.434 19.7338ZM33.301 19.7547C33.334 19.5885 33.5306 18.603 33.5323 18.603C33.5323 18.603 33.6997 17.8799 33.71 17.8537C33.71 17.8537 33.7626 17.7784 33.8153 17.7486H33.8928C34.6239 17.7486 35.4496 17.7486 36.0967 17.2586C36.537 16.9225 36.8381 16.4261 36.9724 15.823C37.0072 15.6751 37.0329 15.4992 37.0329 15.3233C37.0329 15.0923 36.9878 14.8637 36.8577 14.6851C36.5277 14.2099 35.8705 14.2011 35.112 14.1975C35.1096 14.1975 34.738 14.2011 34.738 14.2011C33.767 14.2134 33.3776 14.2099 33.2176 14.1897C33.2041 14.2625 33.1786 14.392 33.1786 14.392C33.1786 14.392 32.8308 16.0515 32.8308 16.0542C32.8308 16.0542 31.9984 19.5824 31.9592 19.7487C32.8071 19.7381 33.1547 19.7381 33.301 19.7547ZM33.9455 16.8068C33.9455 16.8068 34.3153 15.1507 34.3135 15.157L34.3255 15.0721L34.3307 15.0073L34.4785 15.023C34.4785 15.023 35.2413 15.0905 35.2591 15.0923C35.5601 15.2121 35.6842 15.5211 35.5976 15.9245C35.5186 16.2931 35.2863 16.6029 34.9879 16.7526C34.7421 16.8794 34.4411 16.89 34.1309 16.89H33.9302L33.9455 16.8068ZM36.2481 18.2345C36.1503 18.6633 36.038 19.4467 36.7343 19.7259C36.9564 19.8231 37.1553 19.852 37.3575 19.8415C37.5711 19.8296 37.7689 19.7194 37.9522 19.5607C37.9356 19.6259 37.9191 19.6912 37.9026 19.7566L37.9341 19.7985C38.435 19.7768 38.5904 19.7768 39.133 19.781L39.1822 19.7425C39.2615 19.263 39.3361 18.7973 39.542 17.88C39.6424 17.4406 39.7425 17.0054 39.8455 16.5678L39.8294 16.5197C39.2691 16.6265 39.1193 16.6494 38.5804 16.728L38.5395 16.7623C38.534 16.8069 38.5284 16.8497 38.5231 16.8925C38.4393 16.7531 38.3179 16.6342 38.1305 16.56C37.8908 16.463 37.3279 16.588 36.844 17.0415C36.504 17.3653 36.3408 17.809 36.2481 18.2345ZM37.4248 18.2607C37.5447 17.7321 37.6825 17.2849 38.0395 17.2849C38.2652 17.2849 38.384 17.4993 38.3599 17.865C38.3407 17.9562 38.32 18.0523 38.2955 18.161C38.2598 18.318 38.221 18.4738 38.1834 18.6297C38.145 18.7364 38.1004 18.837 38.0514 18.904C37.9596 19.038 37.741 19.1211 37.6152 19.1211C37.5795 19.1211 37.3593 19.1211 37.3516 18.7868C37.3499 18.6203 37.3832 18.4489 37.4248 18.2607ZM43.5697 16.5154L43.5264 16.4645C42.972 16.5801 42.8716 16.5985 42.3623 16.6693L42.3248 16.7079C42.3231 16.7141 42.3216 16.7238 42.319 16.7325L42.3172 16.7238C41.938 17.6243 41.9491 17.43 41.6405 18.139C41.6387 18.1067 41.6387 18.0866 41.637 18.0523L41.5597 16.5154L41.5112 16.4645C40.9304 16.5801 40.9167 16.5985 40.3804 16.6693L40.3386 16.7079C40.3327 16.7262 40.3327 16.7464 40.3292 16.7684L40.3327 16.7762C40.3998 17.1289 40.3837 17.0502 40.4509 17.6068C40.4823 17.88 40.5241 18.1547 40.5554 18.4245C40.6083 18.876 40.6379 19.0982 40.7025 19.7873C40.3403 20.4026 40.2546 20.6354 39.9059 21.1754L39.9083 21.1808L39.6627 21.5805C39.6347 21.6226 39.6092 21.6515 39.5735 21.6639C39.5343 21.6838 39.4834 21.6874 39.4126 21.6874H39.2766L39.0744 22.3798L39.7681 22.3921C40.1753 22.3903 40.4313 22.1942 40.5691 21.9307L41.0053 21.1613H40.9984L41.0443 21.107C41.3377 20.4568 43.5697 16.5154 43.5697 16.5154ZM36.248 25.6087H35.9537L37.043 21.9001H37.4043L37.519 21.5181L37.5301 21.9429C37.5166 22.2055 37.7173 22.4384 38.2445 22.3998H38.8542L39.064 21.6857H38.8346C38.7027 21.6857 38.6415 21.6514 38.6491 21.5779L38.638 21.1457H37.509V21.1479C37.144 21.1558 36.0539 21.184 35.8332 21.2445C35.5661 21.3153 35.2846 21.5237 35.2846 21.5237L35.3952 21.1412H34.3391L34.119 21.9001L33.0152 25.6654H32.801L32.591 26.3744H34.6945L34.624 26.6108H35.6605L35.7293 26.3744H36.0201L36.248 25.6087ZM35.385 22.6537C35.2158 22.7019 34.9011 22.848 34.9011 22.848L35.181 21.9001H36.0201L35.8177 22.5907C35.8177 22.5907 35.5585 22.6064 35.385 22.6537ZM35.4011 24.0077C35.4011 24.0077 35.1375 24.0418 34.964 24.0821C34.7931 24.1355 34.4727 24.3035 34.4727 24.3035L34.7618 23.3172H35.6053L35.4011 24.0077ZM34.9309 25.6175H34.0892L34.3332 24.785H35.1723L34.9309 25.6175ZM36.958 23.3172H38.1713L37.9969 23.8984H36.7675L36.5829 24.5339H37.6587L36.8441 25.7145C36.7871 25.8012 36.736 25.8319 36.6791 25.8563C36.6221 25.8861 36.5472 25.9211 36.4606 25.9211H36.1622L35.9571 26.6171H36.7377C37.1434 26.6171 37.3831 26.427 37.5601 26.1777L38.1186 25.3907L38.2385 26.1898C38.264 26.3394 38.3685 26.427 38.4392 26.4611C38.5174 26.5014 38.5981 26.5707 38.7122 26.581C38.8345 26.5864 38.9229 26.5906 38.9817 26.5906H39.3652L39.5955 25.8117H39.4442C39.3573 25.8117 39.2078 25.7967 39.1823 25.7687C39.1569 25.7347 39.1569 25.6822 39.1432 25.6025L39.0215 24.8016H38.5232L38.7418 24.5339H39.9688L40.1575 23.8984H39.0215L39.1985 23.3172H40.331L40.541 22.6004H37.1646L36.958 23.3172ZM26.7105 25.7793L26.9937 24.8095H28.1576L28.3703 24.0883H27.2053L27.3831 23.4913H28.5215L28.7325 22.7929H25.884L25.6775 23.4913H26.3246L26.152 24.0883H25.5031L25.2881 24.8219H25.935L25.5575 26.1049C25.5066 26.2747 25.5815 26.3395 25.6289 26.4184C25.6775 26.4952 25.7267 26.5461 25.8372 26.575C25.9513 26.6012 26.0294 26.6169 26.1357 26.6169H27.4478L27.6815 25.8179L27.0999 25.9001C26.9876 25.9001 26.6766 25.8862 26.7105 25.7793ZM26.844 21.1368L26.5491 21.6856C26.486 21.8055 26.4291 21.8799 26.378 21.9141C26.3329 21.943 26.2437 21.9551 26.1144 21.9551H25.9605L25.7548 22.6572H26.2659C26.5116 22.6572 26.7004 22.5644 26.7905 22.518C26.8873 22.4647 26.9128 22.4952 26.9877 22.4208L27.1603 22.2668H28.7562L28.968 21.5359H27.7998L28.0038 21.1368H26.844ZM29.2002 25.7934C29.1729 25.7531 29.1925 25.6821 29.2341 25.5342L29.6703 24.0479H31.2221C31.4482 24.0445 31.6115 24.0419 31.7177 24.034C31.8318 24.0217 31.9558 23.9798 32.091 23.9045C32.2305 23.8256 32.3019 23.7425 32.3622 23.647C32.4295 23.5518 32.5375 23.3434 32.6302 23.0221L33.1785 21.1413L31.5682 21.1509C31.5682 21.1509 31.0723 21.2262 30.854 21.3093C30.6337 21.4021 30.319 21.6611 30.319 21.6611L30.4644 21.1455H29.4696L28.077 25.9001C28.0276 26.0847 27.9945 26.2187 27.9869 26.2991C27.9843 26.3859 28.0931 26.4717 28.1636 26.5364C28.247 26.6012 28.3702 26.5907 28.4884 26.6012C28.6127 26.6108 28.7894 26.6169 29.0334 26.6169H29.7979L30.0325 25.8013L29.3482 25.8678C29.275 25.8678 29.2221 25.8275 29.2002 25.7934ZM29.9518 23.0441H31.5817L31.4781 23.3784C31.4635 23.3862 31.4286 23.3618 31.2628 23.382H29.8514L29.9518 23.0441ZM30.2783 21.9228H31.9219L31.8037 22.3255C31.8037 22.3255 31.029 22.3176 30.9049 22.3412C30.359 22.4384 30.0401 22.7387 30.0401 22.7387L30.2783 21.9228ZM31.5145 24.4979C31.501 24.5479 31.4797 24.5783 31.4499 24.6012C31.4168 24.6232 31.3633 24.631 31.2834 24.631H31.0511L31.0648 24.2239H30.0988L30.0596 26.2143C30.0581 26.3579 30.0716 26.441 30.1737 26.5076C30.2758 26.5907 30.5903 26.6013 31.0137 26.6013H31.619L31.8376 25.8562L31.3106 25.886L31.1354 25.8966C31.1114 25.886 31.0886 25.8764 31.0631 25.8502C31.0409 25.8275 31.0035 25.8414 31.0096 25.6978L31.0137 25.1876L31.5663 25.1641C31.8648 25.1641 31.9923 25.0641 32.1012 24.9689C32.205 24.8777 32.2389 24.7728 32.2781 24.631L32.3709 24.1793H31.6114L31.5145 24.4979Z" fill="#FEFEFE"/>
<rect x="0.5" y="0.5" width="57" height="39" rx="5.5" stroke="#F2F4F7"/>
</svg>
