<svg width="58" height="40" viewBox="0 0 58 40" fill="none" xmlns="http://www.w3.org/2000/svg">
<rect x="0.5" y="0.5" width="57" height="39" rx="5.5" fill="white"/>
<path fill-rule="evenodd" clip-rule="evenodd" d="M24.3161 17.1754H26.1605L26.457 15.6571H24.6123L24.3161 17.1754ZM24.1248 18.152H25.9696L24.7977 24.1469C24.7122 24.1772 24.4481 24.2838 24.0835 24.2838C23.5914 24.2838 23.14 24.0889 23.14 23.3979C23.14 23.2679 23.1547 23.1199 23.1876 22.9517C23.5541 21.081 24.1248 18.152 24.1248 18.152ZM42.4419 18.015C41.2141 18.015 40.7261 18.7457 40.4969 19.1904H40.4752L40.546 18.1532H38.723C38.7111 18.3813 38.6322 19.1003 38.5153 19.7204C38.5153 19.7204 38.0943 21.8964 38.0147 22.313C37.954 22.6313 37.843 23.1018 37.843 23.3749C37.843 23.9563 38.1333 24.284 38.7809 24.284C39.1442 24.284 39.4061 24.1831 39.5014 24.1469L40.111 21.0248C40.2801 20.1628 40.8937 19.5986 41.6233 19.5986C42.212 19.5986 42.4934 20.0348 42.4934 20.3915C42.4934 20.7018 42.4168 21.0458 42.3575 21.35L42.0953 22.687C42.0641 22.8475 41.9973 23.1558 41.9973 23.3976C41.9973 23.9886 42.3253 24.284 42.9483 24.284C43.2884 24.284 43.504 24.1976 43.6568 24.1469L44.2039 21.3481C44.3225 20.7156 44.3662 20.3825 44.3662 19.9799C44.3662 18.8209 43.6992 18.015 42.4419 18.015ZM34.2479 19.4646C33.2168 19.4646 32.6456 20.5357 32.6456 21.4904C32.6456 22.2956 33.0036 22.8349 33.8172 22.8349C34.737 22.8349 35.4569 22.0396 35.4569 20.6822C35.4569 20.0612 35.1315 19.4646 34.2479 19.4646ZM33.704 24.2842C31.7289 24.2842 30.7839 23.0806 30.7839 21.5465C30.7839 19.4416 32.2063 18.015 34.4045 18.015C36.3117 18.015 37.3245 19.1884 37.3245 20.6953C37.3245 22.9535 35.8052 24.2842 33.704 24.2842ZM26.7964 22.8407C26.7544 23.0565 26.7278 23.2076 26.7278 23.3934C26.7278 24.0806 27.1799 24.284 27.659 24.284C28.0421 24.284 28.2791 24.1775 28.3659 24.1469L29.2528 19.6027L30.687 19.6025L30.9702 18.152L29.5361 18.1521L29.6058 17.7948C29.7356 17.1248 30.0459 16.8303 30.5827 16.8303C30.9412 16.8303 31.2311 16.895 31.3319 16.9217L31.6018 15.5424C31.4868 15.5129 30.9568 15.381 30.1724 15.381C28.9224 15.381 28.1036 16.1524 27.8614 17.3948L27.7131 18.152H26.7794L26.4961 19.6025H27.4304C27.4304 19.6025 27.0619 21.4814 26.7964 22.8407ZM22.5499 18.0152C21.624 18.0152 21.1148 18.6684 20.9157 19.1895H20.8944L20.9656 18.152H19.1419C19.1258 18.5116 19.0517 19.1197 18.8659 20.0757C18.6776 21.0446 18.4941 22.011 18.3047 22.9516C18.2723 23.1124 18.2578 23.2697 18.2578 23.4028C18.2578 23.8955 18.4974 24.2835 19.2052 24.2835C19.5559 24.2835 19.7995 24.191 19.9164 24.1469L20.459 21.3677C20.6544 20.3044 21.0094 19.6014 22.0394 19.6014C22.5079 19.6014 22.953 19.703 23.0463 19.7308L23.3585 18.1317C23.2911 18.1081 23.0207 18.0152 22.5499 18.0152ZM49.3058 20.5818C49.4046 20.0321 49.0899 19.4646 48.3787 19.4646C47.5103 19.4646 47.1289 20.0675 46.9586 20.5818H49.3058ZM50.1289 22.8126C50.1289 23.6464 49.3344 24.2857 47.9274 24.2857C45.9829 24.2857 45.0321 23.0549 45.0321 21.5481C45.0321 20.0524 46.0092 18.0166 48.3941 18.0166C49.9665 18.0166 51.1423 18.8104 51.1423 20.6277C51.1423 21.0747 51.0443 21.5606 51.0022 21.7552H46.8225C46.8155 22.1912 47.1772 22.947 48.6301 22.947C49.2775 22.947 50.0107 22.7145 50.1289 22.6553C50.1289 22.7006 50.1289 22.7826 50.1289 22.8126ZM15.9756 20.5818C16.0742 20.0321 15.7595 19.4646 15.0483 19.4646C14.1799 19.4646 13.7987 20.0675 13.6282 20.5818H15.9756ZM16.7987 22.8126C16.7987 23.6464 16.0042 24.2857 14.5974 24.2857C12.6528 24.2857 11.7021 23.0549 11.7021 21.5481C11.7021 20.0524 12.679 18.0166 15.0641 18.0166C16.6365 18.0166 17.8123 18.8104 17.8123 20.6277C17.8123 21.0747 17.7143 21.5606 17.6721 21.7552H13.4925C13.4855 22.1912 13.847 22.947 15.2999 22.947C15.9474 22.947 16.6806 22.7145 16.7987 22.6553C16.7987 22.7006 16.7987 22.7826 16.7987 22.8126ZM5.71426 16.1121H7.56998V22.0728C7.56998 22.9691 8.00899 23.4267 8.71377 23.4267C8.78565 23.4267 8.82803 23.4174 8.842 23.4139C8.53308 23.889 8.13256 24.2786 7.21293 24.2786C6.2399 24.2786 5.71426 23.5922 5.71426 22.5621V16.1121Z" fill="#1A1919"/>
<path fill-rule="evenodd" clip-rule="evenodd" d="M8.24082 21.2127C8.14021 21.3724 8.08682 21.5572 8.08682 21.7459V22.0827C8.08682 22.687 8.40801 22.9035 8.75869 22.9035C9.11714 22.9035 9.30901 22.6565 9.48505 22.3757C9.78 21.9055 13.3843 16.1121 13.3843 16.1121H11.4555L8.24082 21.2127Z" fill="#00A3DA"/>
<rect x="0.5" y="0.5" width="57" height="39" rx="5.5" stroke="#F2F4F7"/>
</svg>
