<svg width="58" height="40" viewBox="0 0 58 40" fill="none" xmlns="http://www.w3.org/2000/svg">
<rect x="0.5" y="0.5" width="57" height="39" rx="5.5" fill="white"/>
<path fill-rule="evenodd" clip-rule="evenodd" d="M20.9052 26.9226C21.1621 26.7892 21.5987 26.614 22.0613 26.614C23.123 26.614 23.6969 27.331 23.6969 28.665C23.6969 30.2234 22.9264 30.982 21.6846 30.982C21.2306 30.982 20.5284 30.8404 20.0145 30.5732V24.7553L20.9052 24.5469V26.9226ZM20.8968 30.265C21.1706 30.3817 21.4705 30.3983 21.6847 30.3983C22.3184 30.3983 22.7979 30.015 22.7979 28.665C22.7979 27.6061 22.4039 27.2643 21.8302 27.2643C21.4875 27.2643 21.2394 27.356 20.8968 27.5394V30.265ZM11.7759 26.7222H11.8359L13.0003 30.8819H13.9251L15.3125 24.9717H14.3105L13.4371 29.3815H13.3774L12.1868 24.9717H11.4247L10.3115 29.3815H10.2515L9.29233 24.9717H8.33331L9.72065 30.8819H10.6453L11.7759 26.7222ZM19.1073 30.5983V29.9649C18.6362 30.2399 18.2082 30.3983 17.7458 30.3983C16.8638 30.3983 16.4442 29.9563 16.4442 28.9562H19.2357V28.6479C19.2357 27.2894 18.5763 26.6141 17.5061 26.6141C16.2216 26.6141 15.5621 27.531 15.5621 28.7978C15.5621 30.1151 16.153 30.9821 17.5915 30.9821C18.2082 30.9821 18.722 30.8153 19.1073 30.5983ZM18.4222 28.3979H16.4616C16.5555 27.5645 16.9577 27.1726 17.4804 27.1726C17.9428 27.1726 18.3797 27.5225 18.4222 28.3979ZM27.6362 29.6315H27.5932L25.675 24.9717H24.6389V30.8819H25.4097V26.6975H25.4866L27.2338 30.8819H27.7816L29.5287 26.5974H29.6059V30.8819H30.5307V24.9717H29.4687L27.6362 29.6315ZM31.4728 28.7978C31.4728 27.3391 32.2949 26.6141 33.4252 26.6141C34.5557 26.6141 35.3779 27.3391 35.3779 28.7978C35.3779 30.2234 34.5985 30.9821 33.4252 30.9821C32.2519 30.9821 31.4728 30.2234 31.4728 28.7978ZM34.4785 28.7978C34.4785 27.6727 34.0074 27.1977 33.4252 27.1977C32.8599 27.1977 32.3718 27.6727 32.3718 28.7978C32.3718 29.9402 32.8174 30.3983 33.4252 30.3983C34.0331 30.3983 34.4785 29.9402 34.4785 28.7978ZM38.3744 26.6141C37.3901 26.6141 36.5764 27.0058 36.1911 27.2309V30.882H37.0818V27.581C37.3471 27.4312 37.7839 27.2809 38.1267 27.2809C38.5633 27.2809 38.897 27.3976 38.897 28.0562V30.882H39.7875V27.8642C39.7875 27.0058 39.4025 26.6141 38.3744 26.6141ZM44.129 29.9649V30.5983C43.7439 30.8153 43.2303 30.9821 42.6134 30.9821C41.175 30.9821 40.5841 30.1151 40.5841 28.7978C40.5841 27.531 41.2437 26.6141 42.528 26.6141C43.5986 26.6141 44.2582 27.2894 44.2582 28.6479V28.9562H41.4664C41.4664 29.9563 41.886 30.3983 42.7679 30.3983C43.2303 30.3983 43.6585 30.2399 44.129 29.9649ZM41.4835 28.3979H43.4444C43.4018 27.5225 42.9647 27.1726 42.5023 27.1726C41.9798 27.1726 41.5779 27.5645 41.4835 28.3979ZM48.5056 26.7557H47.5893L46.6127 29.823H46.5616L45.4655 26.7557H44.5235L46.1677 30.9235C45.9619 31.5402 45.6026 31.9907 45.0203 31.9907V32.6739C46.0046 32.6739 46.5271 32.074 46.9554 30.9235L48.5056 26.7557Z" fill="#0068A3"/>
<path fill-rule="evenodd" clip-rule="evenodd" d="M27.8453 7.5C29.0238 7.5 30.1398 7.76713 31.1338 8.24139C31.29 8.31348 31.4457 8.3928 31.6018 8.48037L30.9109 9.0823L29.8728 8.03751L28.1208 9.55862L27.0801 8.45309L23.8164 11.3166L25.9088 13.5612L25.0865 14.2651L27.1474 16.513L26.33 17.2154L29.2749 20.406L31.023 18.8395L32.5343 20.5182C32.2337 20.7457 31.9063 20.9598 31.5455 21.1576C30.4526 21.7642 29.1895 22.1116 27.8453 22.1116C23.7115 22.1116 20.3399 18.8293 20.3399 14.806C20.3399 10.7818 23.7115 7.5 27.8453 7.5ZM26.4774 14.3441L28.2622 12.7797L29.8693 14.5173L28.0847 16.0812L26.4774 14.3441ZM29.5315 15.7819L27.7466 17.3459L29.354 19.0836L31.1387 17.5192L29.5315 15.7819ZM25.2004 11.3774L26.9852 9.81335L28.5918 11.5506L26.8071 13.1146L25.2004 11.3774ZM29.8141 9.36253L28.4756 10.5354L29.6807 11.8388L31.0193 10.6655L29.8141 9.36253ZM30.8538 15.9089L32.1928 14.7355L33.398 16.0388L32.0594 17.2118L30.8538 15.9089ZM33.3697 17.3672L32.0314 18.5407L33.2365 19.8432L34.5751 18.6701L33.3697 17.3672ZM32.5705 12.5089L33.4629 11.7268L34.2662 12.5954L33.3743 13.3773L32.5705 12.5089ZM32.3228 9.14597L31.4304 9.92791L32.2337 10.7965L33.1262 10.0146L32.3228 9.14597ZM33.7113 15.0897L34.6037 14.3076L35.4072 15.176L34.5148 15.9581L33.7113 15.0897ZM31.0477 11.9823L29.7093 13.1558L30.9147 14.4582L32.2528 13.2852L31.0477 11.9823Z" fill="#0068A3"/>
<rect x="0.5" y="0.5" width="57" height="39" rx="5.5" stroke="#F2F4F7"/>
</svg>
