<svg width="58" height="40" viewBox="0 0 58 40" fill="none" xmlns="http://www.w3.org/2000/svg">
<rect x="0.5" y="0.5" width="57" height="39" rx="5.5" fill="white"/>
<path d="M39.6667 17.9651C39.5499 17.2435 38.9072 16.7623 38.0309 16.7623C37.7388 16.7623 37.5051 16.7623 37.213 16.7623C36.6872 16.7022 36.5703 16.8826 36.5703 17.3036C36.5703 19.4085 36.5703 21.4533 36.5703 23.5583C36.5703 24.6408 35.5187 25.7835 34.2918 26.0241C30.4359 26.9262 26.58 27.7682 22.7241 28.6703C22.3151 28.7906 21.8477 28.7906 21.3804 28.7906C21.2051 28.7906 20.913 28.6703 20.8546 28.4899C20.7961 28.3696 20.9714 28.129 21.0882 28.0087C21.2635 27.8884 21.4972 27.7682 21.7309 27.6479C22.432 27.4073 23.1915 27.1668 23.8925 26.9262C26.7553 25.9639 29.618 25.0017 32.4807 23.9793C33.766 23.5583 34.4671 22.6562 34.4671 21.5135C34.5255 17.905 34.4671 14.2364 34.4671 10.6279C34.4671 10.0265 34.175 9.54538 33.5323 9.30482C32.7728 9.00411 32.0717 9.24467 31.4291 9.54538C27.3395 11.53 23.3083 13.5147 19.2187 15.4994C18.0502 16.1008 17.3492 16.9427 17.3492 18.1456C17.3492 21.5736 17.3492 25.0017 17.3492 28.4297C17.3492 28.6101 17.3492 28.7906 17.4076 28.9109C17.8166 30.0535 18.8682 30.7752 20.2703 30.7752C23.133 30.7752 25.9958 30.7752 28.8585 30.7752C31.7212 30.7752 34.5255 30.7752 37.3882 30.7752C38.0309 30.7752 38.5567 30.6549 39.0241 30.234C39.6083 29.7528 39.6083 29.0913 39.6083 28.4899C39.6083 25.531 39.6667 17.9651 39.6667 17.9651ZM27.7484 16.8826C28.0406 16.1008 28.6832 15.6196 29.618 15.4994C30.2606 15.4392 30.7864 15.8001 30.9033 16.4015C31.0201 17.3036 29.9685 18.3861 28.8585 18.3861C27.9821 18.3861 27.4563 17.7246 27.7484 16.8826Z" fill="#FD6727"/>
<rect x="0.5" y="0.5" width="57" height="39" rx="5.5" stroke="#F2F4F7"/>
</svg>
