<svg width="25" height="25" viewBox="0 0 25 25" fill="none" xmlns="http://www.w3.org/2000/svg">
<g id="Huge-icon/interface/bulk/add-circle">
<path id="Vector 280" d="M22.25 12.5C22.25 18.0228 17.7728 22.5 12.25 22.5C6.72715 22.5 2.25 18.0228 2.25 12.5C2.25 6.97715 6.72715 2.5 12.25 2.5C17.7728 2.5 22.25 6.97715 22.25 12.5Z" fill="#013A93"/>
<path id="Union" fill-rule="evenodd" clip-rule="evenodd" d="M13 8.5C13 8.08579 12.6642 7.75 12.25 7.75C11.8358 7.75 11.5 8.08579 11.5 8.5V11.75H8.25C7.83579 11.75 7.5 12.0858 7.5 12.5C7.5 12.9142 7.83579 13.25 8.25 13.25H11.5V16.5C11.5 16.9142 11.8358 17.25 12.25 17.25C12.6642 17.25 13 16.9142 13 16.5V13.25H16.25C16.6642 13.25 17 12.9142 17 12.5C17 12.0858 16.6642 11.75 16.25 11.75H13V8.5Z" fill="white"/>
</g>
</svg>
