<svg width="18" height="18" viewBox="0 0 18 18" fill="none" xmlns="http://www.w3.org/2000/svg">
<g id="Iconsax/Bulk/bagtick">
<path id="Vector" opacity="0.4" d="M14.43 4.18304H14.13L11.595 1.64804C11.496 1.55066 11.3626 1.49609 11.2238 1.49609C11.0849 1.49609 10.9515 1.55066 10.8525 1.64804C10.65 1.85054 10.65 2.18054 10.8525 2.39054L12.645 4.18304H5.355L7.1475 2.39054C7.35 2.18804 7.35 1.85804 7.1475 1.64804C7.04847 1.55066 6.91514 1.49609 6.77625 1.49609C6.63736 1.49609 6.50403 1.55066 6.405 1.64804L3.8775 4.18304H3.5775C2.9025 4.18304 1.5 4.18304 1.5 6.10304C1.5 6.83054 1.65 7.31054 1.965 7.62554C2.145 7.81304 2.3625 7.91054 2.595 7.96304C2.8125 8.01554 3.045 8.02304 3.27 8.02304H14.73C14.9625 8.02304 15.18 8.00804 15.39 7.96304C16.02 7.81304 16.5 7.36304 16.5 6.10304C16.5 4.18304 15.0975 4.18304 14.43 4.18304Z" fill="#013A93"/>
<path id="Vector_2" d="M14.7457 8.02453H3.2707C3.0532 8.02453 2.8132 8.01703 2.5957 7.95703L3.5407 13.7245C3.7582 15.0145 4.3207 16.4995 6.8182 16.4995H11.0257C13.5532 16.4995 14.0032 15.232 14.2732 13.8145L15.4057 7.95703C15.1957 8.00953 14.9707 8.02453 14.7457 8.02453ZM11.1607 11.287L8.7232 13.537C8.6182 13.6345 8.4757 13.687 8.3407 13.687C8.1982 13.687 8.0557 13.6345 7.9432 13.522L6.8182 12.397C6.71359 12.2912 6.65493 12.1484 6.65493 11.9995C6.65493 11.8507 6.71359 11.7079 6.8182 11.602C7.0357 11.3845 7.3957 11.3845 7.6132 11.602L8.3557 12.3445L10.3957 10.462C10.6207 10.252 10.9807 10.267 11.1907 10.492C11.4082 10.7245 11.3932 11.077 11.1607 11.287Z" fill="#013A93"/>
</g>
</svg>
