<svg width="20" height="22" viewBox="0 0 20 22" fill="none" xmlns="http://www.w3.org/2000/svg">
<g id="briefcase">
<g id="Subtract">
<path d="M0 9.11719L0 17.245C0 19.4541 1.79086 21.245 4 21.245H16C18.2091 21.245 20 19.4541 20 17.245V9.11724L12.4029 11.5817C12.4029 11.5817 11.5013 14.0201 10 14.0201C8.49872 14.0201 7.39067 11.5817 7.39067 11.5817L0 9.11719Z" fill="#013A93"/>
</g>
<path id="Subtract_2" fill-rule="evenodd" clip-rule="evenodd" d="M16 5.24609H4C1.79086 5.24609 0 7.03695 0 9.24609V9.59358C0 9.59358 2.91389 11.5345 7.49817 12.1032V12.5602C7.49817 13.6648 8.3936 14.5602 9.49817 14.5602H10.5016C11.6062 14.5602 12.5016 13.6648 12.5016 12.5602V12.1033C17.086 11.5346 20 9.59358 20 9.59358V9.24609C20 7.03695 18.2091 5.24609 16 5.24609ZM9.07512 11.3405C8.96467 11.3405 8.87512 11.43 8.87512 11.5405V12.5293C8.87512 12.9711 9.23329 13.3293 9.67512 13.3293H10.3248C10.7666 13.3293 11.1248 12.9711 11.1248 12.5293V11.5405C11.1248 11.43 11.0352 11.3405 10.9248 11.3405H9.07512Z" fill="#AABDDB"/>
<path id="Vector 994 (Stroke)" fill-rule="evenodd" clip-rule="evenodd" d="M9 1.99609C7.75736 1.99609 6.75 3.00345 6.75 4.24609V5.24609C6.75 5.66031 6.41421 5.99609 6 5.99609C5.58579 5.99609 5.25 5.66031 5.25 5.24609V4.24609C5.25 2.17503 6.92893 0.496094 9 0.496094H11C13.0711 0.496094 14.75 2.17503 14.75 4.24609V5.24609C14.75 5.66031 14.4142 5.99609 14 5.99609C13.5858 5.99609 13.25 5.66031 13.25 5.24609V4.24609C13.25 3.00345 12.2426 1.99609 11 1.99609H9Z" fill="#AABDDB"/>
</g>
</svg>
