<svg width="24" height="24" viewBox="0 0 24 24" fill="none" xmlns="http://www.w3.org/2000/svg">
<path d="M23.9992 11.9935C23.9992 18.6237 18.6236 23.9999 11.995 23.9999C11.468 23.9999 10.9487 23.9655 10.4393 23.8996C9.08128 23.7235 7.79449 23.3198 6.61789 22.7269C6.28855 22.5615 5.96839 22.3814 5.65737 22.1877C5.0722 21.8222 4.52152 21.4079 4.00979 20.9506C3.7463 20.7155 3.49279 20.4681 3.25069 20.21C2.13098 19.0158 1.25083 17.5926 0.690845 16.017C0.556828 15.6402 0.441167 15.2557 0.344707 14.8628C0.240457 14.4368 0.158564 14.0018 0.101134 13.5591C0.034483 13.0466 0 12.5243 0 11.9934C0 11.2045 0.0789452 10.4286 0.222941 9.67179C0.376874 8.87598 0.620447 8.09621 0.933702 7.35328C2.7537 3.03091 7.02003 0 11.995 0C12.525 0 13.0474 0.0343988 13.5591 0.10105C14.0018 0.157764 14.4368 0.239741 14.8628 0.344664C15.2557 0.440367 15.6417 0.555311 16.0186 0.689329C17.5942 1.24923 19.0174 2.12857 20.2107 3.24918C20.4689 3.49199 20.7163 3.74546 20.9515 4.00975C21.4087 4.5214 21.8231 5.07212 22.1877 5.65732C22.3815 5.96835 22.5622 6.28847 22.7277 6.61785C22.8487 6.85839 22.9621 7.10348 23.067 7.35324C23.3764 8.09621 23.6216 8.87593 23.7778 9.67175C23.826 9.92525 23.8667 10.1812 23.8996 10.4393C23.9647 10.9502 23.9992 11.4688 23.9992 11.9935Z" fill="#FFC414"/>
<g opacity="0.6">
<path d="M20.2104 3.2493L3.2504 20.21C2.13068 19.0159 1.25054 17.5927 0.690552 16.0171L16.0183 0.689453C17.5939 1.24935 19.0171 2.1287 20.2104 3.2493Z" fill="#FFD900"/>
<path d="M23.8994 10.4397L10.4391 23.8999C9.08106 23.7238 7.79428 23.32 6.61768 22.7272L22.7274 6.61816C22.8485 6.85871 22.9619 7.10379 23.0668 7.35356C23.3762 8.09653 23.6214 8.87625 23.7776 9.67206C23.8259 9.92561 23.8665 10.1815 23.8994 10.4397Z" fill="#FFD900"/>
<path d="M22.1876 5.65734L5.65722 22.1876C5.07206 21.8222 4.52138 21.4078 4.00964 20.9506L20.9513 4.00977C21.4086 4.52146 21.8229 5.07218 22.1876 5.65734Z" fill="#FFD900"/>
<path d="M14.8628 0.34473L0.344769 14.8628C0.240519 14.4369 0.158626 14.0018 0.101196 13.5591L13.5591 0.101074C14.0018 0.157789 14.4369 0.239807 14.8628 0.34473Z" fill="#FFD900"/>
</g>
<path d="M20.6811 3.71565C18.5264 1.65444 15.6065 0.389043 12.3841 0.389043C7.40915 0.389043 3.14198 3.41995 1.32279 7.74228C1.00953 8.48525 0.765959 9.26426 0.612026 10.0609C0.467987 10.8177 0.388411 11.5935 0.388411 12.3817C0.388411 15.5934 1.64994 18.5118 3.70268 20.6657C1.42161 18.4812 0 15.4028 0 11.9934C0 11.2045 0.0789452 10.4286 0.222941 9.67179C0.376874 8.87598 0.620447 8.09621 0.933702 7.35328C2.7537 3.03091 7.02003 0 11.995 0C15.415 0 18.4957 1.42544 20.6811 3.71565Z" fill="#FFE75E"/>
<path d="M23.9993 11.9927C23.9993 18.6237 18.623 24 11.9952 24C8.59122 24 5.51589 22.5783 3.33215 20.2951C5.48523 22.3493 8.39977 23.6108 11.606 23.6108C18.2347 23.6108 23.6103 18.2346 23.6103 11.6044C23.6103 10.8155 23.5328 10.0395 23.3888 9.2828C23.2326 8.48695 22.9875 7.70718 22.678 6.96425C22.1058 5.60618 21.2932 4.37602 20.2921 3.32666C21.4724 4.45568 22.423 5.82369 23.0671 7.35329C23.3766 8.0963 23.6216 8.87523 23.7772 9.67193C23.922 10.4287 23.9993 11.2045 23.9993 11.9927Z" fill="#DB9B11"/>
<path d="M21.8191 11.9705V11.9936C21.8191 17.4124 17.4125 21.8203 11.9958 21.8203H11.9689C11.846 21.8199 11.7234 21.8178 11.6013 21.8127C10.3475 21.7627 9.15382 21.4768 8.06374 20.9972C8.01911 20.9778 7.97448 20.9576 7.92985 20.9374C7.65281 20.8106 7.38292 20.6713 7.12019 20.5206C7.09072 20.5033 7.06124 20.4864 7.03219 20.4692C6.4962 20.1539 5.99348 19.7888 5.52865 19.3812C5.52234 19.3757 5.51644 19.3703 5.51013 19.3648C5.26887 19.1509 5.03772 18.9265 4.81878 18.6907C4.81541 18.6873 4.81246 18.6835 4.80909 18.6802C3.78891 17.5829 3.01756 16.2524 2.58136 14.7796C2.56115 14.711 2.54178 14.6423 2.52326 14.5729C2.44284 14.2773 2.37589 13.9767 2.32326 13.6715C2.30726 13.5801 2.29295 13.4883 2.2799 13.3956C2.23274 13.0681 2.202 12.7351 2.18853 12.3973C2.18348 12.2757 2.18053 12.1536 2.17969 12.0306V11.9936C2.17969 11.3679 2.242 10.7262 2.36368 10.0858C2.48536 9.45932 2.68031 8.82355 2.94261 8.1991C4.48236 4.5432 8.03553 2.18115 11.9958 2.18115H12.0295C12.1521 2.18157 12.2742 2.18452 12.3963 2.18915C12.7331 2.20258 13.0661 2.2329 13.395 2.28052C13.4872 2.29315 13.5794 2.30784 13.6708 2.32346C13.9765 2.37567 14.2775 2.4422 14.5739 2.52262C14.643 2.5411 14.7116 2.56047 14.7802 2.58072C16.2424 3.01061 17.5776 3.77395 18.6854 4.8034C18.6887 4.8063 18.6921 4.80967 18.6955 4.81266C18.9308 5.03202 19.156 5.26318 19.3696 5.50612C19.375 5.51243 19.3805 5.51833 19.3855 5.52464C19.7906 5.98653 20.1552 6.48967 20.4718 7.02945C20.4891 7.05888 20.506 7.08835 20.5228 7.11786C20.6727 7.38013 20.8116 7.6509 20.9384 7.92963C20.959 7.97384 20.9788 8.01805 20.9986 8.06268C21.0184 8.10811 21.0378 8.15359 21.0571 8.19906C21.3199 8.82894 21.516 9.46766 21.6377 10.0916C21.7333 10.5914 21.7918 11.0992 21.8107 11.6032C21.8166 11.7262 21.8187 11.8488 21.8191 11.9705Z" fill="#FFC414"/>
<g opacity="0.2">
<path d="M18.6853 4.80373L4.80903 18.6804C3.78884 17.5831 3.0175 16.2527 2.5813 14.7798C2.56109 14.7112 2.54172 14.6426 2.52319 14.5731L14.5738 2.52295C14.6429 2.54143 14.7115 2.5608 14.7801 2.58105C16.2424 3.01094 17.5775 3.77429 18.6853 4.80373Z" fill="#FFD900"/>
<path d="M21.8191 11.9702L11.9689 21.8201C11.8459 21.8196 11.7234 21.8175 11.6013 21.8125C10.3475 21.7624 9.1538 21.4765 8.06372 20.9969L20.9985 8.0625C21.0183 8.10793 21.0377 8.1534 21.0571 8.19887C21.3198 8.82875 21.516 9.46747 21.6377 10.0915C21.7333 10.5912 21.7918 11.099 21.8107 11.603C21.8166 11.726 21.8187 11.8485 21.8191 11.9702Z" fill="#FFD900"/>
<path d="M20.5226 7.11768L7.11998 20.5203C7.09051 20.503 7.06103 20.4861 7.03198 20.4689C6.496 20.1535 5.99327 19.7885 5.52844 19.3809L19.3853 5.52441C19.7904 5.9863 20.155 6.48944 20.4716 7.02922C20.4889 7.05873 20.5057 7.0882 20.5226 7.11768Z" fill="#FFD900"/>
<path d="M13.395 2.28052L2.2799 13.3956C2.23274 13.0681 2.202 12.735 2.18853 12.3973C2.18348 12.2756 2.18053 12.1535 2.17969 12.0306L12.0295 2.18115C12.1521 2.18157 12.2742 2.18452 12.3963 2.18915C12.7331 2.20263 13.0661 2.23294 13.395 2.28052Z" fill="#FFD900"/>
</g>
<path d="M19.1369 5.25113C17.3484 3.55681 14.9499 2.56522 12.3805 2.56522C8.4206 2.56522 4.86751 4.92772 3.32848 8.58439C3.06546 9.20812 2.87073 9.84397 2.7493 10.4705C2.62715 11.1115 2.56459 11.7531 2.56459 12.379C2.56459 14.9902 3.58713 17.367 5.2534 19.1282C3.36221 17.3361 2.18018 14.8004 2.18018 11.9939C2.18018 11.368 2.24203 10.7264 2.36413 10.0855C2.4856 9.45885 2.68029 8.82295 2.94331 8.19926C4.48243 4.54268 8.03551 2.18018 11.9954 2.18018C14.7546 2.18013 17.3162 3.32398 19.1369 5.25113Z" fill="#DB9B11"/>
<path d="M4.86218 18.7495C6.65064 20.4438 9.04906 21.4354 11.6185 21.4354C15.5784 21.4354 19.1316 19.0729 20.6707 15.4162C20.9335 14.7925 21.1284 14.1567 21.2498 13.5301C21.3719 12.8892 21.4345 12.2475 21.4345 11.6217C21.4345 9.01051 20.4119 6.63356 18.7456 4.87256C20.6368 6.66455 21.8188 9.20023 21.8188 12.0068C21.8188 12.6326 21.7571 13.2743 21.6349 13.9152C21.5134 14.5418 21.3188 15.1776 21.0558 15.8014C19.5167 19.458 15.9635 21.8205 12.0037 21.8205C9.24455 21.8205 6.68302 20.6766 4.86218 18.7495Z" fill="#FFE75E"/>
<path d="M18.8573 17.7327C18.1104 16.9847 18.055 15.5547 18.055 15.5547C18.055 15.5547 17.9996 16.9848 17.2524 17.7327C16.4952 18.4893 15.0459 18.5641 15.0459 18.5641C15.0459 18.5641 16.4952 18.6383 17.2524 19.3954C17.9996 20.1434 18.055 21.5728 18.055 21.5728C18.055 21.5728 18.1104 20.1434 18.8573 19.3954C19.6137 18.6383 21.063 18.5641 21.063 18.5641C21.063 18.5641 19.6137 18.4893 18.8573 17.7327Z" fill="white"/>
</svg>
