<svg width="20" height="21" viewBox="0 0 20 21" fill="none" xmlns="http://www.w3.org/2000/svg">
<g id="copy">
<path id="Rectangle 1125" d="M6 4.5C6 2.29086 7.79086 0.5 10 0.5H16C18.2092 0.5 20 2.29086 20 4.5V10.5C20 12.7091 18.2092 14.5 16 14.5H10C7.79086 14.5 6 12.7091 6 10.5V4.5Z" fill="#CBCBCB"/>
<path id="Rectangle 1126" d="M0 10.5C0 8.29086 1.79086 6.5 4 6.5H10C12.2092 6.5 14 8.29086 14 10.5V16.5C14 18.7091 12.2092 20.5 10 20.5H4C1.79086 20.5 0 18.7091 0 16.5V10.5Z" fill="#A1A0A3"/>
</g>
</svg>
