<svg width="24" height="25" viewBox="0 0 24 25" fill="none" xmlns="http://www.w3.org/2000/svg">
<g id="Iconsax/Bulk/emptywallet">
<path id="Vector" opacity="0.4" d="M18.04 14.05C17.62 14.46 17.38 15.05 17.44 15.68C17.53 16.76 18.52 17.55 19.6 17.55H21.5V18.74C21.5 20.81 19.81 22.5 17.74 22.5H6.26C4.19 22.5 2.5 20.81 2.5 18.74V12.01C2.5 9.94 4.19 8.25 6.26 8.25H17.74C19.81 8.25 21.5 9.94 21.5 12.01V13.45H19.48C18.92 13.45 18.41 13.67 18.04 14.05Z" fill="#013A93"/>
<path id="Vector_2" d="M14.85 4.45156V8.25156H6.26C4.19 8.25156 2.5 9.94156 2.5 12.0116V8.34156C2.5 7.15156 3.23 6.09156 4.34 5.67156L12.28 2.67156C13.52 2.21156 14.85 3.12156 14.85 4.45156ZM22.559 14.4696V16.5296C22.559 17.0796 22.119 17.5296 21.559 17.5496H19.599C18.519 17.5496 17.529 16.7596 17.439 15.6796C17.379 15.0496 17.619 14.4596 18.039 14.0496C18.409 13.6696 18.919 13.4496 19.479 13.4496H21.559C22.119 13.4696 22.559 13.9196 22.559 14.4696ZM14 13.2496H7C6.59 13.2496 6.25 12.9096 6.25 12.4996C6.25 12.0896 6.59 11.7496 7 11.7496H14C14.41 11.7496 14.75 12.0896 14.75 12.4996C14.75 12.9096 14.41 13.2496 14 13.2496Z" fill="#013A93"/>
</g>
</svg>
