<svg width="23" height="30" viewBox="0 0 23 30" fill="none" xmlns="http://www.w3.org/2000/svg">
<path d="M11.1141 29.5179C17.2523 29.5179 22.2282 29.0548 22.2282 28.4836C22.2282 27.9123 17.2523 27.4492 11.1141 27.4492C4.97596 27.4492 0 27.9123 0 28.4836C0 29.0548 4.97596 29.5179 11.1141 29.5179Z" fill="#FFE4A9"/>
<path d="M3.09603 25.8923H3.09637C4.82851 27.4755 7.42211 28.4824 10.3222 28.4824C12.5643 28.4824 14.6228 27.88 16.2423 26.8754C16.2423 26.8754 16.5119 26.724 16.933 26.4028C17.0896 26.2846 17.2406 26.1621 17.3863 26.0357C18.9329 24.7131 21.5543 21.7359 22.037 16.4674C22.73 8.90534 18.4938 5.60746 18.4938 5.60746C21.8221 12.5442 16.2832 15.5826 16.2049 7.76812C16.1266 -0.0465431 6.61953 0.490254 6.61953 0.490254C13.7797 3.67435 9.18144 14.006 6.15753 13.9512C3.13362 13.8967 5.34906 8.90517 5.34906 8.90517C-4.92905 19.4811 3.09603 25.8923 3.09603 25.8923Z" fill="#FF3A03"/>
<path d="M14.2009 20.9242C12.057 20.2871 11.1482 18.6187 10.8156 16.6851C10.5859 18.3748 9.97062 19.9602 8.31939 20.6721C6.14327 21.6102 4.30893 20.4082 3.44832 18.5636C2.82365 19.4831 2.46887 20.5366 2.46887 21.6564C2.46887 25.2421 6.10637 28.1488 10.5937 28.1488C15.0809 28.1488 18.7186 25.2421 18.7186 21.6564C18.7186 21.0983 18.6295 20.5567 18.4638 20.0399C17.255 20.9508 15.7567 21.3864 14.2009 20.9242Z" fill="#FBB700"/>
<path d="M12.5729 24.2194C11.397 23.9145 10.8986 23.1164 10.7162 22.1914C10.5903 22.9998 10.2528 23.7583 9.34718 24.0988C8.15362 24.5475 7.14767 23.9725 6.67562 23.09C6.33297 23.5299 6.13843 24.0339 6.13843 24.5697C6.13843 26.2852 8.13352 27.6759 10.5944 27.6759C13.0553 27.6759 15.0504 26.2852 15.0504 24.5697C15.0504 24.3026 15.0016 24.0437 14.9106 23.7963C14.2479 24.2321 13.4262 24.4406 12.5729 24.2194Z" fill="#FFDFAB"/>
</svg>
