<svg width="20" height="20" viewBox="0 0 20 20" fill="none" xmlns="http://www.w3.org/2000/svg">
<g id="vuesax/bold/frame">
<g id="frame">
<path id="Vector" d="M10 1.66699C12.1834 1.66699 13.9584 3.44199 13.9584 5.62533C13.9584 7.76699 12.2834 9.50033 10.1 9.57533C10.0334 9.56699 9.96671 9.56699 9.91671 9.57533C9.90004 9.57533 9.89171 9.57533 9.87504 9.57533C9.86671 9.57533 9.86671 9.57533 9.85837 9.57533C7.72504 9.50033 6.05004 7.76699 6.04171 5.62533C6.04171 3.44199 7.81671 1.66699 10 1.66699Z" fill="#048BDC"/>
<path id="Vector_2" d="M5.7667 11.7914C8.0917 10.2414 11.8834 10.2414 14.225 11.7914C15.2834 12.4997 15.8667 13.4581 15.8667 14.4831C15.8667 15.5081 15.2834 16.4581 14.2334 17.1581C13.0667 17.9414 11.5334 18.3331 10 18.3331C8.4667 18.3331 6.93337 17.9414 5.7667 17.1581C4.7167 16.4497 4.13336 15.4997 4.13336 14.4664C4.1417 13.4414 4.7167 12.4914 5.7667 11.7914Z" fill="#048BDC"/>
</g>
</g>
</svg>
