<svg width="18" height="18" viewBox="0 0 18 18" fill="none" xmlns="http://www.w3.org/2000/svg">
<g id="Iconsax/Bulk/home3">
<path id="Vector" d="M7.55294 2.11391L2.35544 6.27641C1.77044 6.74141 1.39544 7.72391 1.52294 8.45891L2.52044 14.4289C2.70044 15.4939 3.72044 16.3564 4.80044 16.3564H13.2004C14.2729 16.3564 15.3004 15.4864 15.4804 14.4289L16.4779 8.45891C16.5979 7.72391 16.2229 6.74141 15.6454 6.27641L10.4479 2.12141C9.64544 1.47641 8.34794 1.47641 7.55294 2.11391Z" fill="#013A93"/>
<path id="Vector_2" d="M9 11.625C9.49728 11.625 9.97419 11.4275 10.3258 11.0758C10.6775 10.7242 10.875 10.2473 10.875 9.75C10.875 9.25272 10.6775 8.77581 10.3258 8.42417C9.97419 8.07254 9.49728 7.875 9 7.875C8.50272 7.875 8.02581 8.07254 7.67417 8.42417C7.32254 8.77581 7.125 9.25272 7.125 9.75C7.125 10.2473 7.32254 10.7242 7.67417 11.0758C8.02581 11.4275 8.50272 11.625 9 11.625Z" fill="#567CB7"/>
</g>
</svg>
