<svg width="25" height="24" viewBox="0 0 25 24" fill="none" xmlns="http://www.w3.org/2000/svg">
<g id="Iconsax/Bulk/home3">
<path id="Vector" d="M10.9443 2.81985L4.01429 8.36985C3.23429 8.98985 2.73429 10.2998 2.90429 11.2798L4.23429 19.2398C4.47429 20.6598 5.83429 21.8098 7.27429 21.8098H18.4743C19.9043 21.8098 21.2743 20.6498 21.5143 19.2398L22.8443 11.2798C23.0043 10.2998 22.5043 8.98985 21.7343 8.36985L14.8043 2.82985C13.7343 1.96985 12.0043 1.96985 10.9443 2.81985Z" fill="#013A93"/>
<path id="Vector_2" d="M12.875 15.5C13.538 15.5 14.1739 15.2366 14.6428 14.7678C15.1116 14.2989 15.375 13.663 15.375 13C15.375 12.337 15.1116 11.7011 14.6428 11.2322C14.1739 10.7634 13.538 10.5 12.875 10.5C12.212 10.5 11.5761 10.7634 11.1072 11.2322C10.6384 11.7011 10.375 12.337 10.375 13C10.375 13.663 10.6384 14.2989 11.1072 14.7678C11.5761 15.2366 12.212 15.5 12.875 15.5Z" fill="white"/>
</g>
</svg>
