<svg width="24" height="24" viewBox="0 0 24 24" fill="none" xmlns="http://www.w3.org/2000/svg">
<g id="Iconsax/Bulk/home2">
<path id="Vector" d="M13.9933 3.20114L13.9936 3.20133L19.7535 7.23126C19.7535 7.23128 19.7536 7.23131 19.7536 7.23133C20.2228 7.55979 20.6671 8.09836 20.9945 8.72554C21.3219 9.35275 21.5102 10.0259 21.5102 10.6016V17.3816C21.5102 19.6555 19.6641 21.5016 17.3902 21.5016H6.61023C4.33778 21.5016 2.49023 19.6469 2.49023 17.3716V10.4716C2.49023 9.93721 2.66062 9.29813 2.95881 8.69251C3.25686 8.08716 3.6613 7.55853 4.08775 7.2259L4.08786 7.22581L9.09648 3.31689C9.0967 3.31672 9.09692 3.31655 9.09714 3.31638C10.434 2.28108 12.603 2.22706 13.9933 3.20114Z" fill="#013A93" stroke="white"/>
<path id="Vector_2" d="M12 18.25C11.8661 18.25 11.75 18.1339 11.75 18V15C11.75 14.8661 11.8661 14.75 12 14.75C12.1339 14.75 12.25 14.8661 12.25 15V18C12.25 18.1339 12.1339 18.25 12 18.25Z" fill="white" stroke="white"/>
</g>
</svg>
