<svg width="24" height="25" viewBox="0 0 24 25" fill="none" xmlns="http://www.w3.org/2000/svg">
<g id="Huge-icon/interface/bulk/location 3">
<path id="Vector" d="M21.25 22.5H2.75C2.34 22.5 2 22.16 2 21.75C2 21.34 2.34 21 2.75 21H21.25C21.66 21 22 21.34 22 21.75C22 22.16 21.66 22.5 21.25 22.5Z" fill="#013A93"/>
<path id="Vector_2" d="M20.5889 14.1988L13.3589 21.4288C13.0235 21.7659 12.625 22.0336 12.1861 22.2166C11.7472 22.3995 11.2765 22.4942 10.801 22.4951C10.3255 22.4961 9.85441 22.4032 9.41479 22.222C8.97517 22.0407 8.57559 21.7746 8.23891 21.4387L3.62891 16.8288L15.9889 4.46875L20.5989 9.07875C20.9347 9.41543 21.2009 9.81501 21.3821 10.2546C21.5634 10.6943 21.6562 11.1653 21.6553 11.6408C21.6544 12.1163 21.5597 12.587 21.3767 13.0259C21.1937 13.4648 20.926 13.8634 20.5889 14.1988Z" fill="#013A93"/>
<path id="Vector_3" d="M15.9887 4.47029L3.61873 16.8303L2.70873 15.9203C2.37292 15.5836 2.10677 15.184 1.92551 14.7444C1.74424 14.3048 1.65142 13.8337 1.65235 13.3582C1.65328 12.8827 1.74794 12.412 1.93092 11.9731C2.1139 11.5342 2.3816 11.1357 2.71873 10.8003L9.94873 3.57029C10.2841 3.23317 10.6826 2.96546 11.1215 2.78248C11.5605 2.5995 12.0311 2.50484 12.5067 2.50391C12.9822 2.50298 13.4532 2.59581 13.8928 2.77707C14.3325 2.95833 14.732 3.22448 15.0687 3.56029L15.9887 4.47029ZM12.8897 18.0993L11.5397 19.4493C11.2597 19.7293 10.8097 19.7293 10.5297 19.4493C10.4632 19.3831 10.4103 19.3044 10.3743 19.2178C10.3382 19.1311 10.3196 19.0382 10.3196 18.9443C10.3196 18.8504 10.3382 18.7575 10.3743 18.6708C10.4103 18.5841 10.4632 18.5055 10.5297 18.4393L11.8797 17.0893C12.1597 16.8093 12.6097 16.8093 12.8897 17.0893C13.1697 17.3693 13.1697 17.8193 12.8897 18.0993ZM17.2697 13.7203L14.5797 16.4103C14.2997 16.6903 13.8497 16.6903 13.5697 16.4103C13.5032 16.3441 13.4503 16.2654 13.4143 16.1788C13.3782 16.0921 13.3596 15.9992 13.3596 15.9053C13.3596 15.8114 13.3782 15.7185 13.4143 15.6318C13.4503 15.5451 13.5032 15.4665 13.5697 15.4003L16.2597 12.7103C16.5397 12.4303 16.9897 12.4303 17.2697 12.7103C17.5397 12.9903 17.5397 13.4403 17.2697 13.7203Z" fill="#567CB7"/>
</g>
</svg>
