<svg width="20" height="21" viewBox="0 0 20 21" fill="none" xmlns="http://www.w3.org/2000/svg">
<g id="location">
<path id="Vector 453" d="M1.15385 17.7308L1.98718 15.7308C2.29772 14.9855 3.02593 14.5 3.83333 14.5H16.1667C16.9741 14.5 17.7023 14.9855 18.0128 15.7308L18.8462 17.7308C19.3951 19.0481 18.4272 20.5 17 20.5H3C1.57284 20.5 0.60494 19.0481 1.15385 17.7308Z" fill="#AABDDB"/>
<path id="Ellipse 884" d="M17 7.61111C17 11.5385 12.625 16.5 10 16.5C7.375 16.5 3 11.5385 3 7.61111C3 3.68375 6.13401 0.5 10 0.5C13.866 0.5 17 3.68375 17 7.61111Z" fill="#013A93"/>
<path id="Ellipse 117" d="M12.5 7.5C12.5 8.88071 11.3807 10 10 10C8.61929 10 7.5 8.88071 7.5 7.5C7.5 6.11929 8.61929 5 10 5C11.3807 5 12.5 6.11929 12.5 7.5Z" fill="#AABDDB"/>
</g>
</svg>
