<svg width="32" height="32" viewBox="0 0 32 32" fill="none" xmlns="http://www.w3.org/2000/svg">
<g clip-path="url(#clip0_1295_23331)">
<path d="M16 0C24.8368 0 32 7.1632 32 16V27.2C32 28.473 31.4943 29.6939 30.5941 30.5941C29.6939 31.4943 28.473 32 27.2 32H16.8V24.9808C16.8 23.3792 16.8976 21.72 17.7376 20.3568C18.339 19.3799 19.1434 18.5437 20.0964 17.905C21.0494 17.2664 22.1286 16.8401 23.2608 16.6552L23.5672 16.6056C23.6935 16.5624 23.8031 16.4808 23.8808 16.3722C23.9584 16.2636 24.0002 16.1335 24.0002 16C24.0002 15.8665 23.9584 15.7364 23.8808 15.6278C23.8031 15.5192 23.6935 15.4376 23.5672 15.3944L23.2608 15.3448C21.6065 15.0746 20.0789 14.2916 18.8937 13.1063C17.7084 11.9211 16.9254 10.3935 16.6552 8.7392L16.6056 8.4328C16.5624 8.30648 16.4808 8.19683 16.3722 8.11918C16.2636 8.04154 16.1335 7.9998 16 7.9998C15.8665 7.9998 15.7363 8.04154 15.6277 8.11918C15.5191 8.19683 15.4375 8.30648 15.3944 8.4328L15.3448 8.7392C15.1599 9.87142 14.7337 10.9506 14.095 11.9036C13.4563 12.8566 12.6201 13.661 11.6432 14.2624C10.28 15.1024 8.62077 15.2 7.01917 15.2H0.019165C0.437565 6.7352 7.43196 0 16 0Z" fill="#048BDC"/>
<path d="M0 16.8H7.0192C8.6208 16.8 10.28 16.8976 11.6432 17.7376C12.7088 18.3942 13.6058 19.2912 14.2624 20.3568C15.1024 21.72 15.2 23.3792 15.2 24.9808V32H4.8C3.52696 32 2.30606 31.4943 1.40589 30.5941C0.505713 29.6939 0 28.473 0 27.2L0 16.8ZM32 1.6C32 2.02435 31.8314 2.43131 31.5314 2.73137C31.2313 3.03143 30.8243 3.2 30.4 3.2C29.9757 3.2 29.5687 3.03143 29.2686 2.73137C28.9686 2.43131 28.8 2.02435 28.8 1.6C28.8 1.17565 28.9686 0.768687 29.2686 0.468629C29.5687 0.168571 29.9757 0 30.4 0C30.8243 0 31.2313 0.168571 31.5314 0.468629C31.8314 0.768687 32 1.17565 32 1.6Z" fill="#048BDC"/>
</g>
<defs>
<clipPath id="clip0_1295_23331">
<rect width="32" height="32" fill="white"/>
</clipPath>
</defs>
</svg>
