<svg width="24" height="24" viewBox="0 0 24 24" fill="none" xmlns="http://www.w3.org/2000/svg">
<g id="Iconsax/Bulk/minuscirlce">
<path id="Vector" opacity="0.4" d="M12 22C17.523 22 22 17.523 22 12C22 6.477 17.523 2 12 2C6.477 2 2 6.477 2 12C2 17.523 6.477 22 12 22Z" fill="#A1A0A3"/>
<path id="Vector_2" d="M15.9199 12.75H7.91992C7.50992 12.75 7.16992 12.41 7.16992 12C7.16992 11.59 7.50992 11.25 7.91992 11.25H15.9199C16.1188 11.25 16.3096 11.329 16.4503 11.4697C16.5909 11.6103 16.6699 11.8011 16.6699 12C16.6699 12.1989 16.5909 12.3897 16.4503 12.5303C16.3096 12.671 16.1188 12.75 15.9199 12.75Z" fill="#A1A0A3"/>
</g>
</svg>
