<svg width="19" height="21" viewBox="0 0 19 21" fill="none" xmlns="http://www.w3.org/2000/svg">
<g id="invoice">
<path id="Vector 424" d="M16.375 0H2.375C1.27043 0 0.375 0.895434 0.375 2V18.1994C0.375 19.3008 1.52241 20.0266 2.51762 19.5548L4.54007 18.5959C5.06979 18.3447 5.68303 18.3386 6.21763 18.5792L8.55427 19.6307C9.07622 19.8655 9.67378 19.8655 10.1957 19.6307L12.5324 18.5792C13.067 18.3386 13.6802 18.3447 14.2099 18.5959L16.2324 19.5548C17.2276 20.0266 18.375 19.3008 18.375 18.1994V2C18.375 0.895431 17.4796 0 16.375 0Z" fill="#013A93"/>
<path id="Vector 425 (Stroke)" fill-rule="evenodd" clip-rule="evenodd" d="M4.625 5C4.625 4.58579 4.96079 4.25 5.375 4.25H9.375C9.78921 4.25 10.125 4.58579 10.125 5C10.125 5.41421 9.78921 5.75 9.375 5.75H5.375C4.96079 5.75 4.625 5.41421 4.625 5ZM4.625 9C4.625 8.58579 4.96079 8.25 5.375 8.25H13.375C13.7892 8.25 14.125 8.58579 14.125 9C14.125 9.41421 13.7892 9.75 13.375 9.75H5.375C4.96079 9.75 4.625 9.41421 4.625 9ZM4.625 13C4.625 12.5858 4.96079 12.25 5.375 12.25H13.375C13.7892 12.25 14.125 12.5858 14.125 13C14.125 13.4142 13.7892 13.75 13.375 13.75H5.375C4.96079 13.75 4.625 13.4142 4.625 13Z" fill="white"/>
</g>
</svg>
