<svg width="19" height="21" viewBox="0 0 19 21" fill="none" xmlns="http://www.w3.org/2000/svg">
<g id="package box">
<path id="Vector" opacity="0.4" d="M16.1246 3.44588L11.1246 1.22366C10.0903 0.763988 8.90971 0.763989 7.87544 1.22366L2.87545 3.44588C1.43093 4.08789 0.5 5.52037 0.5 7.10113V13.9021C0.5 15.4829 1.43094 16.9154 2.87545 17.5574L7.87545 19.7796C8.90971 20.2393 10.0903 20.2393 11.1246 19.7796L16.1246 17.5574C17.5691 16.9154 18.5 15.4829 18.5 13.9021V7.10113C18.5 5.52037 17.5691 4.08789 16.1246 3.44588Z" fill="#A1A0A3"/>
<path id="Vector_2" d="M16.1261 3.44588L11.1261 1.22366C10.0918 0.763988 8.91123 0.763989 7.87697 1.22366L2.87697 3.44588C2.22087 3.73748 1.67072 4.19216 1.26562 4.74974L9.50152 8.50165L17.7374 4.74974C17.3323 4.19216 16.7822 3.73748 16.1261 3.44588Z" fill="#A1A0A3"/>
<g id="Vector_3">
<path d="M9.5 5.75C9.91421 5.75 10.25 6.08579 10.25 6.5L10.25 20.0518C9.75455 20.1464 9.24545 20.1464 8.75 20.0518V6.5C8.75 6.08579 9.08579 5.75 9.5 5.75Z" fill="#A1A0A3"/>
</g>
</g>
</svg>
