<svg width="36" height="51" viewBox="0 0 36 51" fill="none" xmlns="http://www.w3.org/2000/svg">
<path d="M18.2315 0.923996C20.4075 0.923996 22.5195 1.116 24.5675 1.5C26.6155 1.84133 28.4288 2.46 30.0075 3.356C31.6288 4.20933 32.9302 5.38266 33.9115 6.876C34.8928 8.36933 35.3835 10.2467 35.3835 12.508C35.3835 14.172 35.1488 15.6227 34.6795 16.86C34.2102 18.0547 33.5702 19.1 32.7595 19.996C31.9488 20.892 30.9888 21.7027 29.8795 22.428C28.8128 23.1107 27.6822 23.772 26.4875 24.412C25.6342 24.8813 24.7808 25.372 23.9275 25.884C23.0742 26.3533 22.3062 26.8867 21.6235 27.484C20.9408 28.0813 20.3862 28.7853 19.9595 29.596C19.5328 30.364 19.3195 31.2813 19.3195 32.348H15.2875C14.6902 31.58 14.2635 30.812 14.0075 30.044C13.7942 29.2333 13.6875 28.4227 13.6875 27.612C13.6875 26.0333 14.0288 24.7107 14.7115 23.644C15.3942 22.5347 16.1408 21.468 16.9515 20.444C17.7622 19.42 18.5088 18.3107 19.1915 17.116C19.8742 15.9213 20.2155 14.3853 20.2155 12.508C20.2155 11.5693 20.0235 10.7587 19.6395 10.076C19.2555 9.39333 18.7648 8.83867 18.1675 8.412C17.5702 7.94266 16.8875 7.60133 16.1195 7.388C15.3942 7.17466 14.6902 7.068 14.0075 7.068C12.2582 7.068 10.9995 7.26 10.2315 7.644C9.4635 7.98533 8.78083 8.36933 8.1835 8.796C9.0795 8.83866 9.93283 9.32933 10.7435 10.268C11.5542 11.164 11.9595 12.2947 11.9595 13.66C11.9595 15.2813 11.4475 16.6467 10.4235 17.756C9.3995 18.8653 7.97017 19.42 6.1355 19.42C4.3435 19.42 2.95683 18.844 1.9755 17.692C1.03683 16.54 0.5675 15.068 0.5675 13.276C0.5675 11.8253 0.8875 10.3747 1.5275 8.924C2.21017 7.43067 3.2555 6.08666 4.6635 4.892C6.11417 3.69733 7.94883 2.73733 10.1675 2.012C12.3862 1.28666 15.0742 0.923996 18.2315 0.923996ZM10.9355 43.356C10.9355 42.46 11.1062 41.628 11.4475 40.86C11.7888 40.0493 12.2582 39.3453 12.8555 38.748C13.4955 38.1507 14.2208 37.6813 15.0315 37.34C15.8422 36.9987 16.6955 36.828 17.5915 36.828C18.4875 36.828 19.3195 36.9987 20.0875 37.34C20.8982 37.6813 21.6022 38.1507 22.1995 38.748C22.7968 39.3453 23.2662 40.0493 23.6075 40.86C23.9488 41.628 24.1195 42.46 24.1195 43.356C24.1195 44.252 23.9488 45.1053 23.6075 45.916C23.2662 46.7267 22.7968 47.452 22.1995 48.092C21.6022 48.6893 20.8982 49.1587 20.0875 49.5C19.3195 49.8413 18.4875 50.012 17.5915 50.012C16.6955 50.012 15.8422 49.8413 15.0315 49.5C14.2208 49.1587 13.4955 48.6893 12.8555 48.092C12.2582 47.452 11.7888 46.7267 11.4475 45.916C11.1062 45.1053 10.9355 44.252 10.9355 43.356Z" fill="#048BDC"/>
</svg>
