<svg width="18" height="18" viewBox="0 0 18 18" fill="none" xmlns="http://www.w3.org/2000/svg">
<g id="Iconsax/Bulk/receipt21">
<path id="Vector" d="M5.0475 14.775C5.6625 14.115 6.6 14.1675 7.14 14.8875L7.8975 15.9C8.505 16.7025 9.4875 16.7025 10.095 15.9L10.8525 14.8875C11.3925 14.1675 12.33 14.115 12.945 14.775C14.28 16.2 15.3675 15.7275 15.3675 13.7325V5.28C15.375 2.2575 14.67 1.5 11.835 1.5H6.165C3.33 1.5 2.625 2.2575 2.625 5.28V13.725C2.625 15.7275 3.72 16.1925 5.0475 14.775Z" fill="#013A93"/>
<path id="Vector_2" d="M12.1727 8.8125H8.04769C7.74019 8.8125 7.48519 8.5575 7.48519 8.25C7.48519 7.9425 7.74019 7.6875 8.04769 7.6875H12.1727C12.4802 7.6875 12.7352 7.9425 12.7352 8.25C12.7352 8.5575 12.4802 8.8125 12.1727 8.8125ZM12.1727 5.8125H8.04769C7.74019 5.8125 7.48519 5.5575 7.48519 5.25C7.48519 4.9425 7.74019 4.6875 8.04769 4.6875H12.1727C12.4802 4.6875 12.7352 4.9425 12.7352 5.25C12.7352 5.5575 12.4802 5.8125 12.1727 5.8125ZM5.83594 6C5.42344 6 5.08594 5.6625 5.08594 5.25C5.08594 4.8375 5.42344 4.5 5.83594 4.5C6.24844 4.5 6.58594 4.8375 6.58594 5.25C6.58594 5.6625 6.24844 6 5.83594 6ZM5.83594 9C5.42344 9 5.08594 8.6625 5.08594 8.25C5.08594 7.8375 5.42344 7.5 5.83594 7.5C6.24844 7.5 6.58594 7.8375 6.58594 8.25C6.58594 8.6625 6.24844 9 5.83594 9Z" fill="#567CB7"/>
</g>
</svg>
