<svg width="24" height="24" viewBox="0 0 24 24" fill="none" xmlns="http://www.w3.org/2000/svg">
<g id="Iconsax/Bulk/share">
<mask id="mask0_1529_4353" style="mask-type:alpha" maskUnits="userSpaceOnUse" x="0" y="0" width="24" height="24">
<rect id="Bounding box" width="24" height="24" fill="#D9D9D9"/>
</mask>
<g mask="url(#mask0_1529_4353)">
<path id="ios_share" d="M6.3 22.5016C5.8 22.5016 5.375 22.3266 5.025 21.9766C4.675 21.6266 4.5 21.2016 4.5 20.7016V10.3016C4.5 9.80156 4.675 9.37656 5.025 9.02656C5.375 8.67656 5.8 8.50156 6.3 8.50156H8.875V10.0016H6.3C6.23333 10.0016 6.16667 10.0349 6.1 10.1016C6.03333 10.1682 6 10.2349 6 10.3016V20.7016C6 20.7682 6.03333 20.8349 6.1 20.9016C6.16667 20.9682 6.23333 21.0016 6.3 21.0016H17.7C17.7667 21.0016 17.8333 20.9682 17.9 20.9016C17.9667 20.8349 18 20.7682 18 20.7016V10.3016C18 10.2349 17.9667 10.1682 17.9 10.1016C17.8333 10.0349 17.7667 10.0016 17.7 10.0016H15.125V8.50156H17.7C18.2 8.50156 18.625 8.67656 18.975 9.02656C19.325 9.37656 19.5 9.80156 19.5 10.3016V20.7016C19.5 21.2016 19.325 21.6266 18.975 21.9766C18.625 22.3266 18.2 22.5016 17.7 22.5016H6.3ZM11.25 15.7516V4.72656L9.4 6.57656L8.35 5.50156L12 1.85156L15.65 5.50156L14.6 6.57656L12.75 4.72656V15.7516H11.25Z" fill="#013A93"/>
</g>
</g>
</svg>
