<svg width="18" height="22" viewBox="0 0 18 22" fill="none" xmlns="http://www.w3.org/2000/svg">
<g id="signpost">
<g id="Vector">
<path d="M9.5 1H8.5C7.94772 1 7.5 1.44772 7.5 2V20C7.5 20.5523 7.94772 21 8.5 21H9.5C10.0523 21 10.5 20.5523 10.5 20V2C10.5 1.44772 10.0523 1 9.5 1Z" fill="#AABDDB"/>
<path d="M9.5 1H8.5C7.94772 1 7.5 1.44772 7.5 2V20C7.5 20.5523 7.94772 21 8.5 21H9.5C10.0523 21 10.5 20.5523 10.5 20V2C10.5 1.44772 10.0523 1 9.5 1Z" stroke="white" stroke-width="1.5"/>
</g>
<path id="Vector 2981" d="M13.4948 8H2.6875C2.44259 8 2.20619 7.91012 2.02314 7.74741L0.335636 6.24741C-0.111878 5.84962 -0.111879 5.15038 0.335636 4.75259L2.02314 3.25259C2.20619 3.08988 2.44259 3 2.6875 3H13.4948C14.0471 3 14.4948 3.44772 14.4948 4V7C14.4948 7.55228 14.0471 8 13.4948 8Z" fill="#013A93"/>
<path id="Vector 2982" d="M4.96586 15H15.4042C15.6408 15 15.8691 14.9101 16.0459 14.7474L17.6758 13.2474C18.1081 12.8496 18.1081 12.1504 17.6758 11.7526L16.0459 10.2526C15.8691 10.0899 15.6408 10 15.4042 10H4.96586C4.43243 10 4 10.4477 4 11V14C4 14.5523 4.43243 15 4.96586 15Z" fill="#013A93"/>
</g>
</svg>
