<svg width="19" height="18" viewBox="0 0 19 18" fill="none" xmlns="http://www.w3.org/2000/svg">
<g id="user">
<ellipse id="Ellipse 306" cx="7" cy="14" rx="7" ry="4" fill="#013A93"/>
<circle id="Ellipse 307" cx="7" cy="4" r="4" fill="#AABDDB"/>
<path id="Union" fill-rule="evenodd" clip-rule="evenodd" d="M15.25 10C15.25 10.4142 15.5858 10.75 16 10.75C16.4142 10.75 16.75 10.4142 16.75 10V8.75H18C18.4142 8.75 18.75 8.41421 18.75 8C18.75 7.58579 18.4142 7.25 18 7.25H16.75V6C16.75 5.58579 16.4142 5.25 16 5.25C15.5858 5.25 15.25 5.58579 15.25 6L15.25 7.25H14C13.5858 7.25 13.25 7.58579 13.25 8C13.25 8.41421 13.5858 8.75 14 8.75H15.25L15.25 10Z" fill="#013A93"/>
</g>
</svg>
