<svg width="21" height="20" viewBox="0 0 21 20" fill="none" xmlns="http://www.w3.org/2000/svg">
<g id="wallet minus">
<path id="Rectangle 832" d="M20 4H4C1.79086 4 0 5.79086 0 8V16C0 18.2091 1.79086 20 4 20H16C18.2091 20 20 18.2091 20 16V4Z" fill="#AABDDB"/>
<path id="Rectangle 833" d="M20 4C20 1.79086 18.2091 0 16 0H10C7.79086 0 6 1.79086 6 4H20Z" fill="#013A93"/>
<path id="Rectangle 834" d="M0 10L1.74846e-07 14L4 14C5.10457 14 6 13.1046 6 12C6 10.8954 5.10457 10 4 10L0 10Z" fill="#013A93"/>
<path id="Vector 2133 (Stroke)" fill-rule="evenodd" clip-rule="evenodd" d="M20.75 16C20.75 16.4142 20.4142 16.75 20 16.75L14 16.75C13.5858 16.75 13.25 16.4142 13.25 16C13.25 15.5858 13.5858 15.25 14 15.25L20 15.25C20.4142 15.25 20.75 15.5858 20.75 16Z" fill="#013A93"/>
</g>
</svg>
