<svg width="21" height="21" viewBox="0 0 21 21" fill="none" xmlns="http://www.w3.org/2000/svg">
<g id="wallet add">
<path id="Rectangle 832" d="M20 4H4C1.79086 4 0 5.79086 0 8V16C0 18.2091 1.79086 20 4 20H16C18.2091 20 20 18.2091 20 16V4Z" fill="#AABDDB"/>
<path id="Rectangle 833" d="M20 4C20 1.79086 18.2091 0 16 0H10C7.79086 0 6 1.79086 6 4H20Z" fill="#013A93"/>
<path id="Rectangle 834" d="M0 10L1.74846e-07 14L4 14C5.10457 14 6 13.1046 6 12C6 10.8954 5.10457 10 4 10L0 10Z" fill="#013A93"/>
<path id="Vector (Stroke)" fill-rule="evenodd" clip-rule="evenodd" d="M17 13.25C17.4142 13.25 17.75 13.5858 17.75 14V16.25H20C20.4142 16.25 20.75 16.5858 20.75 17C20.75 17.4142 20.4142 17.75 20 17.75H17.75V20C17.75 20.4142 17.4142 20.75 17 20.75C16.5858 20.75 16.25 20.4142 16.25 20V17.75H14C13.5858 17.75 13.25 17.4142 13.25 17C13.25 16.5858 13.5858 16.25 14 16.25H16.25V14C16.25 13.5858 16.5858 13.25 17 13.25Z" fill="#013A93"/>
</g>
</svg>
