<svg width="17" height="17" viewBox="0 0 17 17" fill="none" xmlns="http://www.w3.org/2000/svg">
<g id="Social Media / Whatsapp" clip-path="url(#clip0_896_13975)">
<rect id="Logo Container" x="0.25" y="0.5" width="16" height="16" rx="8" fill="#00D95F"/>
<path id="Vector" d="M4.25 12.2044L4.82398 10.0702C4.36108 9.2388 4.21401 8.26865 4.40976 7.33775C4.60552 6.40685 5.13096 5.57765 5.88967 5.00231C6.64838 4.42696 7.58947 4.14407 8.54025 4.20553C9.49103 4.26699 10.3877 4.6687 11.0658 5.33692C11.7438 6.00515 12.1578 6.89508 12.2316 7.8434C12.3055 8.79173 12.0343 9.73484 11.4679 10.4997C10.9015 11.2645 10.0777 11.7998 9.14791 12.0072C8.21808 12.2147 7.2445 12.0804 6.40582 11.6291L4.25 12.2044ZM6.50977 10.8305L6.6431 10.9094C7.25057 11.2689 7.96009 11.4176 8.66109 11.3325C9.36208 11.2474 10.0152 10.9331 10.5186 10.4387C11.022 9.94432 11.3475 9.29756 11.4443 8.59922C11.5411 7.90087 11.4038 7.19018 11.0537 6.57789C10.7037 5.9656 10.1606 5.4861 9.50912 5.21412C8.85762 4.94213 8.1343 4.89295 7.45188 5.07422C6.76946 5.2555 6.16627 5.65705 5.73631 6.2163C5.30635 6.77556 5.07377 7.4611 5.07482 8.16609C5.07424 8.75064 5.23618 9.32389 5.54259 9.82201L5.6262 9.95963L5.30531 11.1508L6.50977 10.8305Z" fill="white"/>
<path id="Vector_2" fill-rule="evenodd" clip-rule="evenodd" d="M9.74615 8.71316C9.66799 8.65022 9.57647 8.60592 9.47857 8.58364C9.38067 8.56135 9.27896 8.56167 9.1812 8.58456C9.03432 8.64547 8.93941 8.87559 8.8445 8.99065C8.82448 9.01823 8.79508 9.03757 8.76179 9.04505C8.72851 9.05253 8.69364 9.04762 8.66372 9.03126C8.12597 8.82098 7.67522 8.43538 7.38469 7.93708C7.35991 7.90599 7.34818 7.86651 7.35197 7.82695C7.35576 7.7874 7.37478 7.75085 7.40502 7.72502C7.51088 7.6204 7.5886 7.49082 7.631 7.34826C7.64042 7.19102 7.60433 7.03439 7.52705 6.89706C7.46731 6.70452 7.35361 6.53307 7.19939 6.40299C7.11984 6.36727 7.03164 6.35529 6.94544 6.3685C6.85923 6.38171 6.77869 6.41955 6.71353 6.47743C6.60043 6.57486 6.51065 6.69637 6.45081 6.83303C6.39097 6.96968 6.3626 7.11799 6.36779 7.26704C6.36814 7.35074 6.37876 7.43409 6.39943 7.51521C6.4519 7.71011 6.5326 7.89631 6.63896 8.06793C6.7157 8.1994 6.79943 8.32667 6.8898 8.4492C7.18346 8.85167 7.55261 9.19339 7.97675 9.45539C8.18958 9.58853 8.41705 9.69678 8.65468 9.778C8.90152 9.88971 9.17405 9.93258 9.44334 9.90208C9.59677 9.8789 9.74214 9.81842 9.86666 9.72597C9.99118 9.63352 10.091 9.51194 10.1574 9.37192C10.1964 9.28733 10.2083 9.19276 10.1913 9.10119C10.1506 8.91394 9.89981 8.8034 9.74615 8.71316Z" fill="white"/>
</g>
<defs>
<clipPath id="clip0_896_13975">
<rect width="16" height="16" fill="white" transform="translate(0.25 0.5)"/>
</clipPath>
</defs>
</svg>
