<svg width="24" height="24" viewBox="0 0 24 24" fill="none" xmlns="http://www.w3.org/2000/svg">
<path d="M22.2972 17.6797C18.5806 15.8801 17.9883 13.1015 17.9619 12.8954C17.93 12.6457 17.8939 12.4495 18.1692 12.1955C18.4347 11.9502 19.6126 11.2209 19.9395 10.9927C20.4797 10.6149 20.7176 10.2376 20.5422 9.77392C20.4196 9.45312 20.121 9.33229 19.8064 9.33229C19.7072 9.33259 19.6083 9.3437 19.5115 9.36541C18.9179 9.49422 18.3415 9.79171 18.0079 9.87206C17.9678 9.8824 17.9267 9.88796 17.8853 9.88862C17.7075 9.88862 17.64 9.80949 17.6572 9.59543C17.6989 8.94648 17.7872 7.67986 17.6848 6.49666C17.5443 4.86876 17.0195 4.06217 16.3971 3.34881C16.096 3.00287 14.6979 1.51666 11.9999 1.51666C9.30182 1.51666 7.90558 3.00287 7.60635 3.34452C6.98212 4.05788 6.45784 4.86446 6.31864 6.49236C6.21624 7.67556 6.30822 8.94157 6.34624 9.59113C6.3585 9.79477 6.29596 9.88433 6.11813 9.88433C6.07674 9.88362 6.03558 9.87806 5.99549 9.86777C5.66253 9.78741 5.08613 9.48993 4.49256 9.36112C4.39574 9.33941 4.29684 9.3283 4.19761 9.328C3.88182 9.328 3.58442 9.45067 3.46178 9.76962C3.28641 10.2333 3.5231 10.6106 4.06516 10.9884C4.39199 11.2166 5.56994 11.9453 5.83545 12.1912C6.11016 12.4452 6.07459 12.6414 6.04271 12.8911C6.01634 13.1003 5.42338 15.8788 1.70744 17.6754C1.48976 17.7809 1.11939 18.0042 1.77244 18.3649C2.7977 18.9316 3.48018 18.8709 4.01059 19.2125C4.46067 19.5027 4.19455 20.1283 4.52199 20.354C4.92425 20.6319 6.11322 20.3344 7.64927 20.8417C8.93697 21.2661 9.71941 22.4653 12.0029 22.4653C14.2865 22.4653 15.0916 21.2606 16.3566 20.8417C17.8896 20.3344 19.081 20.6319 19.4839 20.354C19.8107 20.1283 19.5452 19.5027 19.9953 19.2125C20.5257 18.8709 21.2076 18.9316 22.2334 18.3649C22.8853 18.0085 22.5149 17.7852 22.2972 17.6797Z" fill="white"/>
<path d="M23.9141 17.4679C23.7473 17.014 23.4297 16.7711 23.0679 16.57C22.9998 16.5301 22.9373 16.4982 22.8839 16.4737C22.776 16.4178 22.6656 16.3639 22.5559 16.3068C21.4282 15.7088 20.5477 14.9543 19.9369 14.06C19.7635 13.8083 19.613 13.5414 19.4874 13.2626C19.4353 13.1136 19.4378 13.0289 19.4752 12.9517C19.5123 12.8921 19.5614 12.8409 19.6193 12.8014C19.8131 12.6732 20.013 12.5431 20.1485 12.4554C20.3901 12.299 20.5814 12.1751 20.7046 12.0874C21.1676 11.7636 21.4914 11.4194 21.6937 11.0349C21.8349 10.7692 21.9172 10.4761 21.9351 10.1758C21.953 9.8754 21.906 9.57469 21.7973 9.2941C21.4907 8.4869 20.7285 7.98577 19.8051 7.98577C19.6103 7.98559 19.416 8.00615 19.2256 8.04711C19.1747 8.05815 19.1238 8.0698 19.0742 8.08268C19.0827 7.53065 19.0705 6.94794 19.0214 6.37443C18.8473 4.35827 18.1415 3.30143 17.4057 2.45865C16.9345 1.93053 16.3794 1.48372 15.7629 1.13621C14.6463 0.498301 13.3801 0.174438 11.9998 0.174438C10.6195 0.174438 9.35935 0.498301 8.2415 1.13621C7.62348 1.48383 7.06734 1.93153 6.5957 2.4611C5.85987 3.30388 5.15408 4.36257 4.97994 6.37689C4.93088 6.9504 4.91862 7.53617 4.92659 8.08514C4.87692 8.07226 4.82664 8.0606 4.77574 8.04956C4.58531 8.0086 4.39106 7.98804 4.19628 7.98823C3.2722 7.98823 2.50877 8.48935 2.2034 9.29656C2.09425 9.57726 2.04679 9.87819 2.06425 10.1789C2.08171 10.4796 2.16368 10.773 2.30458 11.0392C2.50755 11.4237 2.83131 11.7678 3.29427 12.0917C3.41691 12.1776 3.60884 12.3015 3.85044 12.4597C3.98105 12.5444 4.17175 12.6683 4.35877 12.7922C4.42421 12.8345 4.47982 12.8903 4.52188 12.956C4.56113 13.0363 4.56235 13.1228 4.5041 13.2823C4.3802 13.5552 4.23224 13.8165 4.06199 14.0631C3.46474 14.9372 2.60995 15.6781 1.51847 16.2712C0.940228 16.5779 0.3393 16.7828 0.0854386 17.4728C-0.105877 17.9936 0.0192137 18.5861 0.505475 19.0854C0.683937 19.2718 0.890926 19.4285 1.11867 19.5497C1.59254 19.8102 2.09642 20.0119 2.61915 20.1502C2.72702 20.1781 2.82943 20.2239 2.92206 20.2858C3.09928 20.441 3.07414 20.6747 3.31021 21.0169C3.42872 21.1938 3.5793 21.3469 3.75417 21.4684C4.24962 21.8106 4.8064 21.8321 5.39629 21.8548C5.92916 21.875 6.53315 21.8983 7.22299 22.1259C7.50874 22.2204 7.80552 22.4032 8.14953 22.6166C8.9755 23.1245 10.1062 23.8194 11.9985 23.8194C13.8908 23.8194 15.0295 23.1208 15.8616 22.6111C16.2032 22.4013 16.4981 22.2204 16.7759 22.1284C17.4658 21.9002 18.0697 21.8775 18.6026 21.8573C19.1925 21.8346 19.7493 21.8131 20.2447 21.4708C20.4518 21.3264 20.6244 21.1379 20.75 20.9188C20.9199 20.6299 20.9156 20.4281 21.075 20.287C21.1619 20.2281 21.2581 20.1841 21.3595 20.157C21.8894 20.0182 22.4001 19.8147 22.8802 19.551C23.1222 19.4211 23.34 19.2506 23.5241 19.0468L23.5302 19.0394C23.9864 18.5512 24.1011 17.9758 23.9141 17.4679ZM22.2321 18.3721C21.2062 18.9388 20.5244 18.8781 19.9939 19.2197C19.5432 19.5099 19.81 20.1355 19.4825 20.3612C19.0803 20.6391 17.8913 20.3416 16.3553 20.8489C15.0884 21.2678 14.2802 22.4725 12.0016 22.4725C9.72297 22.4725 8.9338 21.2703 7.64609 20.8458C6.11312 20.3385 4.92168 20.636 4.51882 20.3582C4.19199 20.1324 4.4575 19.5068 4.00741 19.2167C3.47639 18.875 2.79452 18.9357 1.76926 18.3721C1.11621 18.0114 1.48658 17.7881 1.70427 17.6826C5.42021 15.883 6.01316 13.1044 6.03953 12.8983C6.07142 12.6487 6.10698 12.4524 5.83227 12.1984C5.56676 11.9531 4.38882 11.2238 4.06199 10.9956C3.52115 10.6178 3.28323 10.2405 3.45861 9.77683C3.58125 9.45603 3.88048 9.3352 4.19444 9.3352C4.29366 9.3355 4.39256 9.34661 4.48938 9.36832C5.08295 9.49713 5.65935 9.79462 5.99232 9.87497C6.03241 9.88526 6.07357 9.89082 6.11495 9.89153C6.29278 9.89153 6.35533 9.80198 6.34306 9.59834C6.30504 8.94877 6.21307 7.68277 6.31547 6.49956C6.45589 4.87167 6.98017 4.06508 7.60317 3.35172C7.90241 3.00885 9.30846 1.52264 11.9973 1.52264C14.6862 1.52264 16.0959 3.00271 16.3951 3.34436C17.0187 4.05772 17.5436 4.86431 17.6828 6.4922C17.7852 7.6754 17.6969 8.94202 17.6552 9.59097C17.6411 9.80504 17.7055 9.88417 17.8833 9.88417C17.9247 9.8835 17.9659 9.87794 18.006 9.86761C18.3396 9.78726 18.9159 9.48977 19.5095 9.36096C19.6063 9.33925 19.7052 9.32814 19.8045 9.32784C20.1203 9.32784 20.4177 9.45051 20.5403 9.76947C20.7157 10.2332 20.479 10.6104 19.9375 10.9882C19.6107 11.2164 18.4328 11.9451 18.1672 12.1911C17.8919 12.445 17.9281 12.6413 17.96 12.8909C17.9864 13.1001 18.5787 15.8787 22.2952 17.6753C22.5148 17.7851 22.8851 18.0083 22.2321 18.3721Z" fill="black"/>
</svg>
